solid filament_width_sensor_v2_full
facet normal 1.0 -6.947220576591918e-14 9.1177065897341e-15
  outer loop
    vertex 423.1132358748935 -0.25446472442194135 -0.0010000000460389403
    vertex 423.1132358748937 2.445535275578054 1.4989999999543417
    vertex 423.1132358748935 -0.25446472442194135 3.5989999999546765
  endloop
endfacet
facet normal 1.0 -6.947220576591918e-14 9.1177065897341e-15
  outer loop
    vertex 423.1132358748937 2.445535275578054 1.4989999999543417
    vertex 423.1132358748935 -0.25446472442194135 -0.0010000000460389403
    vertex 423.1132358748939 6.8475350352521245 -0.0010000000460389403
  endloop
endfacet
facet normal 1.0 -6.947220576591918e-14 9.1177065897341e-15
  outer loop
    vertex 423.1132358748937 2.445535275578054 1.4989999999543417
    vertex 423.1132358748939 6.8475350352521245 -0.0010000000460389403
    vertex 423.11323587489375 4.047535035252125 1.4989999999543417
  endloop
endfacet
facet normal 1.0 -6.947220576591918e-14 9.1177065897341e-15
  outer loop
    vertex 423.11323587489375 4.047535035252125 1.4989999999543417
    vertex 423.1132358748939 6.8475350352521245 -0.0010000000460389403
    vertex 423.11323587489375 4.04753503525213 7.0989999999544215
  endloop
endfacet
facet normal 1.0 -6.947220576591918e-14 9.1177065897341e-15
  outer loop
    vertex 423.11323587489375 4.04753503525213 7.0989999999544215
    vertex 423.1132358748939 6.8475350352521245 -0.0010000000460389403
    vertex 423.1132358748939 6.8475350352521245 7.0989999999544215
  endloop
endfacet
facet normal 1.0 -6.947220576591918e-14 9.1177065897341e-15
  outer loop
    vertex 423.1132358748937 2.445535275578054 3.5989999999546765
    vertex 423.1132358748935 -0.25446472442194135 3.5989999999546765
    vertex 423.1132358748937 2.445535275578054 1.4989999999543417
  endloop
endfacet
facet normal 6.947220576591918e-14 1.0 6.310887241768096e-28
  outer loop
    vertex 423.1132358748939 6.8475350352521245 -0.0010000000460389403
    vertex 420.9132358748939 6.847535035252277 7.098999999954402
    vertex 423.1132358748939 6.8475350352521245 7.0989999999544215
  endloop
endfacet
facet normal 6.947220576591918e-14 1.0 6.310887241768096e-28
  outer loop
    vertex 420.9132358748939 6.847535035252277 7.098999999954402
    vertex 423.1132358748939 6.8475350352521245 -0.0010000000460389403
    vertex 420.913235874894 6.847535035252277 1.498999999954322
  endloop
endfacet
facet normal 6.947220576591918e-14 1.0 6.310887241768096e-28
  outer loop
    vertex 420.913235874894 6.847535035252277 1.498999999954322
    vertex 423.1132358748939 6.8475350352521245 -0.0010000000460389403
    vertex 412.913235874894 6.847535035252834 1.4989999999542487
  endloop
endfacet
facet normal 6.947220576591918e-14 1.0 6.310887241768096e-28
  outer loop
    vertex 412.913235874894 6.847535035252834 1.4989999999542487
    vertex 423.1132358748939 6.8475350352521245 -0.0010000000460389403
    vertex 410.4132358748939 6.847535035253007 1.4989999999542263
  endloop
endfacet
facet normal 6.947220576591918e-14 1.0 6.310887241768096e-28
  outer loop
    vertex 410.4132358748939 6.847535035253007 1.4989999999542263
    vertex 423.1132358748939 6.8475350352521245 -0.0010000000460389403
    vertex 403.9112365920571 6.8475350352534585 1.498999999954167
  endloop
endfacet
facet normal 6.947220576591918e-14 1.0 6.310887241768096e-28
  outer loop
    vertex 403.9112365920571 6.8475350352534585 1.498999999954167
    vertex 423.1132358748939 6.8475350352521245 -0.0010000000460389403
    vertex 403.9112365920571 6.8475350352534585 -0.001000000046213778
  endloop
endfacet
facet normal 6.947220576591918e-14 1.0 6.310887241768096e-28
  outer loop
    vertex 412.913235874894 6.847535035252834 1.4989999999542487
    vertex 410.4132358748939 6.847535035253007 7.098999999954397
    vertex 412.9132358748939 6.847535035252834 7.098999999954419
  endloop
endfacet
facet normal 6.947220576591918e-14 1.0 6.310887241768096e-28
  outer loop
    vertex 410.4132358748939 6.847535035253007 7.098999999954397
    vertex 412.913235874894 6.847535035252834 1.4989999999542487
    vertex 410.4132358748939 6.847535035253007 1.4989999999542263
  endloop
endfacet
facet normal -9.1177065897341e-15 2.3384641384750715e-30 1.0
  outer loop
    vertex 420.9502538607835 2.4455352755782047 3.5989999999546565
    vertex 423.1132358748935 -0.25446472442194135 3.5989999999546765
    vertex 423.1132358748937 2.445535275578054 3.5989999999546765
  endloop
endfacet
facet normal -9.1177065897341e-15 2.3384641384750715e-30 1.0
  outer loop
    vertex 423.1132358748935 -0.25446472442194135 3.5989999999546765
    vertex 420.9502538607835 2.4455352755782047 3.5989999999546565
    vertex 420.9502538607833 -0.25446472442179263 3.5989999999546565
  endloop
endfacet
facet normal 0.0009246529735656012 0.9999991189897968 0.0009523846433168202
  outer loop
    vertex 423.1132358748937 2.445535275578054 1.4989999999543417
    vertex 420.9502538607835 2.4455352755782047 3.5989999999546565
    vertex 423.1132358748937 2.445535275578054 3.5989999999546765
  endloop
endfacet
facet normal 0.0009246529735656012 0.9999991189897968 0.0009523846433168202
  outer loop
    vertex 420.9502538607835 2.4455352755782047 3.5989999999546565
    vertex 423.1132358748937 2.445535275578054 1.4989999999543417
    vertex 420.9502538607835 2.4495352946041935 1.498999999954322
  endloop
endfacet
facet normal 1.0 -6.945553676274553e-14 9.1177065897341e-15
  outer loop
    vertex 410.57594760985205 2.449535294604914 -0.0010000000461531488
    vertex 410.5759476098516 -3.35046470539508 1.4989999999542276
    vertex 410.5759476098516 -3.35046470539508 -0.0010000000461531488
  endloop
endfacet
facet normal 1.0 -6.945553676274553e-14 9.1177065897341e-15
  outer loop
    vertex 410.5759476098516 -3.35046470539508 1.4989999999542276
    vertex 410.57594760985205 2.449535294604914 -0.0010000000461531488
    vertex 410.57594760985205 2.449535294604914 1.4989999999542276
  endloop
endfacet
facet normal -6.947220576591918e-14 -1.0 -6.310887241768096e-28
  outer loop
    vertex 410.57594760985205 2.449535294604914 -0.0010000000461531488
    vertex 420.9502538607835 2.4495352946041935 1.498999999954322
    vertex 410.57594760985205 2.449535294604914 1.4989999999542276
  endloop
endfacet
facet normal -6.947220576591918e-14 -1.0 -6.310887241768096e-28
  outer loop
    vertex 420.9502538607835 2.4495352946041935 1.498999999954322
    vertex 410.57594760985205 2.449535294604914 -0.0010000000461531488
    vertex 420.9502538607835 2.4495352946041935 -0.00100000004605868
  endloop
endfacet
facet normal -7.017689662831412e-14 -1.0 -6.375138886965933e-28
  outer loop
    vertex 401.21123659205637 -3.3504647053944274 -0.0010000000462391577
    vertex 410.5759476098516 -3.35046470539508 1.4989999999542276
    vertex 401.21123659205637 -3.3504647053944274 1.4989999999541423
  endloop
endfacet
facet normal -7.017689662831412e-14 -1.0 -6.375138886965933e-28
  outer loop
    vertex 410.5759476098516 -3.35046470539508 1.4989999999542276
    vertex 401.21123659205637 -3.3504647053944274 -0.0010000000462391577
    vertex 410.5759476098516 -3.35046470539508 -0.0010000000461531488
  endloop
endfacet
facet normal -1.0 6.896864032260705e-14 -9.547308060581004e-15
  outer loop
    vertex 420.9132358748939 6.847535035252277 7.098999999954402
    vertex 420.9132358748938 4.047535035252277 1.498999999954322
    vertex 420.9132358748937 4.047535035252277 7.098999999954402
  endloop
endfacet
facet normal -1.0 6.896864032260705e-14 -9.547308060581004e-15
  outer loop
    vertex 420.9132358748938 4.047535035252277 1.498999999954322
    vertex 420.9132358748939 6.847535035252277 7.098999999954402
    vertex 420.913235874894 6.847535035252277 1.498999999954322
  endloop
endfacet
facet normal -6.890833614488905e-14 -1.0 3.450590861690605e-16
  outer loop
    vertex 420.9132358748938 4.047535035252277 1.498999999954322
    vertex 423.11323587489375 4.04753503525213 7.0989999999544215
    vertex 420.9132358748937 4.047535035252277 7.098999999954402
  endloop
endfacet
facet normal -6.890833614488905e-14 -1.0 3.450590861690605e-16
  outer loop
    vertex 423.11323587489375 4.04753503525213 7.0989999999544215
    vertex 420.9132358748938 4.047535035252277 1.498999999954322
    vertex 423.11323587489375 4.047535035252125 1.4989999999543417
  endloop
endfacet
facet normal 1.0 -6.947220576591918e-14 9.1177065897341e-15
  outer loop
    vertex 412.913235874894 6.847535035252834 1.4989999999542487
    vertex 412.91323587489376 4.0475350352528325 7.098999999954419
    vertex 412.9132358748938 4.0475350352528325 1.4989999999542487
  endloop
endfacet
facet normal 1.0 -6.947220576591918e-14 9.1177065897341e-15
  outer loop
    vertex 412.91323587489376 4.0475350352528325 7.098999999954419
    vertex 412.913235874894 6.847535035252834 1.4989999999542487
    vertex 412.9132358748939 6.847535035252834 7.098999999954419
  endloop
endfacet
facet normal -1.0 6.947220576591918e-14 -9.1177065897341e-15
  outer loop
    vertex 420.9502538607835 2.4455352755782047 3.5989999999546565
    vertex 420.95025386078333 -0.25446472442179263 -0.00100000004605868
    vertex 420.9502538607833 -0.25446472442179263 3.5989999999546565
  endloop
endfacet
facet normal -1.0 6.947220576591918e-14 -9.1177065897341e-15
  outer loop
    vertex 420.95025386078333 -0.25446472442179263 -0.00100000004605868
    vertex 420.9502538607835 2.4455352755782047 3.5989999999546565
    vertex 420.9502538607835 2.4495352946041935 -0.00100000004605868
  endloop
endfacet
facet normal -1.0 6.947220576591918e-14 -9.1177065897341e-15
  outer loop
    vertex 420.9502538607835 2.4495352946041935 -0.00100000004605868
    vertex 420.9502538607835 2.4455352755782047 3.5989999999546565
    vertex 420.9502538607835 2.4495352946041935 1.498999999954322
  endloop
endfacet
facet normal -9.1177065897341e-15 2.3384641384750715e-30 1.0
  outer loop
    vertex 410.4132358748939 6.847535035253007 7.098999999954397
    vertex 412.91323587489376 4.0475350352528325 7.098999999954419
    vertex 412.9132358748939 6.847535035252834 7.098999999954419
  endloop
endfacet
facet normal -9.1177065897341e-15 2.3384641384750715e-30 1.0
  outer loop
    vertex 412.91323587489376 4.0475350352528325 7.098999999954419
    vertex 410.4132358748939 6.847535035253007 7.098999999954397
    vertex 410.41323587489376 4.047535035253007 7.098999999954397
  endloop
endfacet
facet normal -1.0 6.947220576591918e-14 -9.1177065897341e-15
  outer loop
    vertex 410.4132358748939 6.847535035253007 7.098999999954397
    vertex 410.41323587489376 4.047535035253007 1.4989999999542263
    vertex 410.41323587489376 4.047535035253007 7.098999999954397
  endloop
endfacet
facet normal -1.0 6.947220576591918e-14 -9.1177065897341e-15
  outer loop
    vertex 410.41323587489376 4.047535035253007 1.4989999999542263
    vertex 410.4132358748939 6.847535035253007 7.098999999954397
    vertex 410.4132358748939 6.847535035253007 1.4989999999542263
  endloop
endfacet
facet normal -6.947220576591918e-14 -1.0 -6.310887241768096e-28
  outer loop
    vertex 410.41323587489376 4.047535035253007 1.4989999999542263
    vertex 412.91323587489376 4.0475350352528325 7.098999999954419
    vertex 410.41323587489376 4.047535035253007 7.098999999954397
  endloop
endfacet
facet normal -6.947220576591918e-14 -1.0 -6.310887241768096e-28
  outer loop
    vertex 412.91323587489376 4.0475350352528325 7.098999999954419
    vertex 410.41323587489376 4.047535035253007 1.4989999999542263
    vertex 412.9132358748938 4.0475350352528325 1.4989999999542487
  endloop
endfacet
facet normal -9.1177065897341e-15 2.3384641384750715e-30 1.0
  outer loop
    vertex 403.9112365920571 6.8475350352534585 1.498999999954167
    vertex 410.41323587489376 4.047535035253007 1.4989999999542263
    vertex 410.4132358748939 6.847535035253007 1.4989999999542263
  endloop
endfacet
facet normal -9.1177065897341e-15 2.3384641384750715e-30 1.0
  outer loop
    vertex 420.9132358748938 4.047535035252277 1.498999999954322
    vertex 423.1132358748937 2.445535275578054 1.4989999999543417
    vertex 423.11323587489375 4.047535035252125 1.4989999999543417
  endloop
endfacet
facet normal -9.1177065897341e-15 2.3384641384750715e-30 1.0
  outer loop
    vertex 423.1132358748937 2.445535275578054 1.4989999999543417
    vertex 420.9132358748938 4.047535035252277 1.498999999954322
    vertex 420.9502538607835 2.4495352946041935 1.498999999954322
  endloop
endfacet
facet normal -9.1177065897341e-15 2.3384641384750715e-30 1.0
  outer loop
    vertex 420.9502538607835 2.4495352946041935 1.498999999954322
    vertex 420.9132358748938 4.047535035252277 1.498999999954322
    vertex 410.57594760985205 2.449535294604914 1.4989999999542276
  endloop
endfacet
facet normal -9.1177065897341e-15 2.3384641384750715e-30 1.0
  outer loop
    vertex 410.57594760985205 2.449535294604914 1.4989999999542276
    vertex 420.9132358748938 4.047535035252277 1.498999999954322
    vertex 420.913235874894 6.847535035252277 1.498999999954322
  endloop
endfacet
facet normal -9.1177065897341e-15 2.3384641384750715e-30 1.0
  outer loop
    vertex 410.57594760985205 2.449535294604914 1.4989999999542276
    vertex 420.913235874894 6.847535035252277 1.498999999954322
    vertex 412.9132358748938 4.0475350352528325 1.4989999999542487
  endloop
endfacet
facet normal -9.1177065897341e-15 2.3384641384750715e-30 1.0
  outer loop
    vertex 412.9132358748938 4.0475350352528325 1.4989999999542487
    vertex 420.913235874894 6.847535035252277 1.498999999954322
    vertex 412.913235874894 6.847535035252834 1.4989999999542487
  endloop
endfacet
facet normal -9.1177065897341e-15 2.3384641384750715e-30 1.0
  outer loop
    vertex 410.57594760985205 2.449535294604914 1.4989999999542276
    vertex 412.9132358748938 4.0475350352528325 1.4989999999542487
    vertex 410.41323587489376 4.047535035253007 1.4989999999542263
  endloop
endfacet
facet normal -9.1177065897341e-15 2.3384641384750715e-30 1.0
  outer loop
    vertex 410.57594760985205 2.449535294604914 1.4989999999542276
    vertex 410.41323587489376 4.047535035253007 1.4989999999542263
    vertex 410.5759476098516 -3.35046470539508 1.4989999999542276
  endloop
endfacet
facet normal -9.1177065897341e-15 2.3384641384750715e-30 1.0
  outer loop
    vertex 410.5759476098516 -3.35046470539508 1.4989999999542276
    vertex 410.41323587489376 4.047535035253007 1.4989999999542263
    vertex 401.21123659205637 -3.3504647053944274 1.4989999999541423
  endloop
endfacet
facet normal -9.1177065897341e-15 2.3384641384750715e-30 1.0
  outer loop
    vertex 401.21123659205637 -3.3504647053944274 1.4989999999541423
    vertex 410.41323587489376 4.047535035253007 1.4989999999542263
    vertex 403.91123659205675 2.143360030491621 1.498999999954167
  endloop
endfacet
facet normal -9.1177065897341e-15 2.3384641384750715e-30 1.0
  outer loop
    vertex 403.91123659205675 2.143360030491621 1.498999999954167
    vertex 410.41323587489376 4.047535035253007 1.4989999999542263
    vertex 403.9112365920571 6.8475350352534585 1.498999999954167
  endloop
endfacet
facet normal -9.1177065897341e-15 2.3384641384750715e-30 1.0
  outer loop
    vertex 401.21123659205637 -3.3504647053944274 1.4989999999541423
    vertex 403.91123659205675 2.143360030491621 1.498999999954167
    vertex 401.2112365920567 2.143360030491809 1.4989999999541423
  endloop
endfacet
facet normal 9.1177065897341e-15 -2.3384641384750715e-30 -1.0
  outer loop
    vertex 401.21123659205637 -3.3504647053944274 -0.0010000000462391577
    vertex 410.57594760985205 2.449535294604914 -0.0010000000461531488
    vertex 410.5759476098516 -3.35046470539508 -0.0010000000461531488
  endloop
endfacet
facet normal 9.1177065897341e-15 -2.3384641384750715e-30 -1.0
  outer loop
    vertex 410.57594760985205 2.449535294604914 -0.0010000000461531488
    vertex 401.21123659205637 -3.3504647053944274 -0.0010000000462391577
    vertex 403.91123659205675 2.143360030491621 -0.001000000046213778
  endloop
endfacet
facet normal 9.1177065897341e-15 -2.3384641384750715e-30 -1.0
  outer loop
    vertex 403.91123659205675 2.143360030491621 -0.001000000046213778
    vertex 401.21123659205637 -3.3504647053944274 -0.0010000000462391577
    vertex 401.2112365920567 2.143360030491809 -0.0010000000462391577
  endloop
endfacet
facet normal 9.1177065897341e-15 -2.3384641384750715e-30 -1.0
  outer loop
    vertex 420.95025386078333 -0.25446472442179263 -0.00100000004605868
    vertex 423.1132358748939 6.8475350352521245 -0.0010000000460389403
    vertex 423.1132358748935 -0.25446472442194135 -0.0010000000460389403
  endloop
endfacet
facet normal 9.1177065897341e-15 -2.3384641384750715e-30 -1.0
  outer loop
    vertex 423.1132358748939 6.8475350352521245 -0.0010000000460389403
    vertex 420.95025386078333 -0.25446472442179263 -0.00100000004605868
    vertex 420.9502538607835 2.4495352946041935 -0.00100000004605868
  endloop
endfacet
facet normal 9.1177065897341e-15 -2.3384641384750715e-30 -1.0
  outer loop
    vertex 423.1132358748939 6.8475350352521245 -0.0010000000460389403
    vertex 420.9502538607835 2.4495352946041935 -0.00100000004605868
    vertex 403.9112365920571 6.8475350352534585 -0.001000000046213778
  endloop
endfacet
facet normal 9.1177065897341e-15 -2.3384641384750715e-30 -1.0
  outer loop
    vertex 403.9112365920571 6.8475350352534585 -0.001000000046213778
    vertex 420.9502538607835 2.4495352946041935 -0.00100000004605868
    vertex 410.57594760985205 2.449535294604914 -0.0010000000461531488
  endloop
endfacet
facet normal 9.1177065897341e-15 -2.3384641384750715e-30 -1.0
  outer loop
    vertex 403.9112365920571 6.8475350352534585 -0.001000000046213778
    vertex 410.57594760985205 2.449535294604914 -0.0010000000461531488
    vertex 403.91123659205675 2.143360030491621 -0.001000000046213778
  endloop
endfacet
facet normal -1.0 6.947220576591918e-14 -9.1177065897341e-15
  outer loop
    vertex 403.9112365920571 6.8475350352534585 1.498999999954167
    vertex 403.91123659205675 2.143360030491621 -0.001000000046213778
    vertex 403.91123659205675 2.143360030491621 1.498999999954167
  endloop
endfacet
facet normal -1.0 6.947220576591918e-14 -9.1177065897341e-15
  outer loop
    vertex 403.91123659205675 2.143360030491621 -0.001000000046213778
    vertex 403.9112365920571 6.8475350352534585 1.498999999954167
    vertex 403.9112365920571 6.8475350352534585 -0.001000000046213778
  endloop
endfacet
facet normal -6.9207624169094e-14 -1.0 -6.286763468079143e-28
  outer loop
    vertex 420.95025386078333 -0.25446472442179263 -0.00100000004605868
    vertex 423.1132358748935 -0.25446472442194135 3.5989999999546765
    vertex 420.9502538607833 -0.25446472442179263 3.5989999999546565
  endloop
endfacet
facet normal -6.9207624169094e-14 -1.0 -6.286763468079143e-28
  outer loop
    vertex 423.1132358748935 -0.25446472442194135 3.5989999999546765
    vertex 420.95025386078333 -0.25446472442179263 -0.00100000004605868
    vertex 423.1132358748935 -0.25446472442194135 -0.0010000000460389403
  endloop
endfacet
facet normal -1.0 6.921555701772308e-14 -9.1177065897341e-15
  outer loop
    vertex 401.2112365920567 2.143360030491809 1.4989999999541423
    vertex 401.21123659205637 -3.3504647053944274 -0.0010000000462391577
    vertex 401.21123659205637 -3.3504647053944274 1.4989999999541423
  endloop
endfacet
facet normal -1.0 6.921555701772308e-14 -9.1177065897341e-15
  outer loop
    vertex 401.21123659205637 -3.3504647053944274 -0.0010000000462391577
    vertex 401.2112365920567 2.143360030491809 1.4989999999541423
    vertex 401.2112365920567 2.143360030491809 -0.0010000000462391577
  endloop
endfacet
facet normal 6.921555701772308e-14 1.0 6.287486761941351e-28
  outer loop
    vertex 403.91123659205675 2.143360030491621 -0.001000000046213778
    vertex 401.2112365920567 2.143360030491809 1.4989999999541423
    vertex 403.91123659205675 2.143360030491621 1.498999999954167
  endloop
endfacet
facet normal 6.921555701772308e-14 1.0 6.287486761941351e-28
  outer loop
    vertex 401.2112365920567 2.143360030491809 1.4989999999541423
    vertex 403.91123659205675 2.143360030491621 -0.001000000046213778
    vertex 401.2112365920567 2.143360030491809 -0.0010000000462391577
  endloop
endfacet
facet normal -9.1177065897341e-15 2.3384641384750715e-30 1.0
  outer loop
    vertex 420.9132358748939 6.847535035252277 7.098999999954402
    vertex 423.11323587489375 4.04753503525213 7.0989999999544215
    vertex 423.1132358748939 6.8475350352521245 7.0989999999544215
  endloop
endfacet
facet normal -9.1177065897341e-15 2.3384641384750715e-30 1.0
  outer loop
    vertex 423.11323587489375 4.04753503525213 7.0989999999544215
    vertex 420.9132358748939 6.847535035252277 7.098999999954402
    vertex 420.9132358748937 4.047535035252277 7.098999999954402
  endloop
endfacet
endsolid filament_width_sensor_v2_full
