solid filament_width_sensor_v2_full
facet normal 0.6087614290087254 0.7933533402912315 0.0
  outer loop
    vertex 415.15977441106736 -11.95277824192376 3.998999999952994
    vertex 415.4911452609658 -12.207048038080385 -0.0010000000470054837
    vertex 415.15977441106736 -11.95277824192376 -0.0010000000470054837
  endloop
endfacet
facet normal 0.6087614290087254 0.7933533402912315 0.0
  outer loop
    vertex 415.4911452609658 -12.207048038080385 -0.0010000000470054837
    vertex 415.15977441106736 -11.95277824192376 3.998999999952994
    vertex 415.4911452609658 -12.207048038080385 3.998999999952994
  endloop
endfacet
facet normal -0.38268343236510943 -0.9238795325112787 -0.0
  outer loop
    vertex 417.0911452609658 -9.435766745970183 3.998999999952994
    vertex 416.70525573312983 -9.275926069962775 -0.0010000000470054837
    vertex 417.0911452609658 -9.435766745970183 -0.0010000000470054837
  endloop
endfacet
facet normal -0.38268343236510943 -0.9238795325112787 -0.0
  outer loop
    vertex 416.70525573312983 -9.275926069962775 -0.0010000000470054837
    vertex 417.0911452609658 -9.435766745970183 3.998999999952994
    vertex 416.70525573312983 -9.275926069962775 3.998999999952994
  endloop
endfacet
facet normal 0.9238795325112594 0.38268343236515584 0.0
  outer loop
    vertex 414.7456639389033 -11.235517864189317 -0.0010000000470054837
    vertex 414.90550461491074 -11.621407392025285 3.998999999952994
    vertex 414.90550461491074 -11.621407392025285 -0.0010000000470054837
  endloop
endfacet
facet normal 0.9238795325112594 0.38268343236515584 0.0
  outer loop
    vertex 414.90550461491074 -11.621407392025285 3.998999999952994
    vertex 414.7456639389033 -11.235517864189317 -0.0010000000470054837
    vertex 414.7456639389033 -11.235517864189317 3.998999999952994
  endloop
endfacet
facet normal -0.9238795325112594 -0.38268343236515584 -0.0
  outer loop
    vertex 417.6767859070208 -10.021407392025285 3.998999999952994
    vertex 417.8366265830283 -10.407296919861253 -0.0010000000470054837
    vertex 417.8366265830283 -10.407296919861253 3.998999999952994
  endloop
endfacet
facet normal -0.9238795325112594 -0.38268343236515584 -0.0
  outer loop
    vertex 417.8366265830283 -10.407296919861253 -0.0010000000470054837
    vertex 417.6767859070208 -10.021407392025285 3.998999999952994
    vertex 417.6767859070208 -10.021407392025285 -0.0010000000470054837
  endloop
endfacet
facet normal 0.38268343236510866 -0.923879532511279 0.0
  outer loop
    vertex 415.8770347888017 -9.275926069962773 3.998999999952994
    vertex 415.4911452609658 -9.435766745970183 -0.0010000000470054837
    vertex 415.8770347888017 -9.275926069962773 -0.0010000000470054837
  endloop
endfacet
facet normal 0.38268343236510866 -0.923879532511279 0.0
  outer loop
    vertex 415.4911452609658 -9.435766745970183 -0.0010000000470054837
    vertex 415.8770347888017 -9.275926069962773 3.998999999952994
    vertex 415.4911452609658 -9.435766745970183 3.998999999952994
  endloop
endfacet
facet normal 0.3826834323651101 0.9238795325112783 0.0
  outer loop
    vertex 415.4911452609658 -12.207048038080385 3.998999999952994
    vertex 415.8770347888017 -12.366888714087795 -0.0010000000470054837
    vertex 415.4911452609658 -12.207048038080385 -0.0010000000470054837
  endloop
endfacet
facet normal 0.3826834323651101 0.9238795325112783 0.0
  outer loop
    vertex 415.8770347888017 -12.366888714087795 -0.0010000000470054837
    vertex 415.4911452609658 -12.207048038080385 3.998999999952994
    vertex 415.8770347888017 -12.366888714087795 3.998999999952994
  endloop
endfacet
facet normal 0.9914448613738162 -0.13052619222000914 0.0
  outer loop
    vertex 414.7456639389033 -10.40729691986125 -0.0010000000470054837
    vertex 414.6911452609658 -10.821407392025284 3.998999999952994
    vertex 414.6911452609658 -10.821407392025284 -0.0010000000470054837
  endloop
endfacet
facet normal 0.9914448613738162 -0.13052619222000914 0.0
  outer loop
    vertex 414.6911452609658 -10.821407392025284 3.998999999952994
    vertex 414.7456639389033 -10.40729691986125 -0.0010000000470054837
    vertex 414.7456639389033 -10.40729691986125 3.998999999952994
  endloop
endfacet
facet normal -0.38268343236510866 0.923879532511279 0.0
  outer loop
    vertex 416.70525573312983 -12.366888714087795 3.998999999952994
    vertex 417.0911452609658 -12.207048038080385 -0.0010000000470054837
    vertex 416.70525573312983 -12.366888714087795 -0.0010000000470054837
  endloop
endfacet
facet normal -0.38268343236510866 0.923879532511279 0.0
  outer loop
    vertex 417.0911452609658 -12.207048038080385 -0.0010000000470054837
    vertex 416.70525573312983 -12.366888714087795 3.998999999952994
    vertex 417.0911452609658 -12.207048038080385 3.998999999952994
  endloop
endfacet
facet normal -0.7933533402912482 0.6087614290087039 0.0
  outer loop
    vertex 417.6767859070208 -11.621407392025285 3.998999999952994
    vertex 417.42251611086425 -11.952778241923761 -0.0010000000470054837
    vertex 417.42251611086425 -11.952778241923761 3.998999999952994
  endloop
endfacet
facet normal -0.7933533402912482 0.6087614290087039 0.0
  outer loop
    vertex 417.42251611086425 -11.952778241923761 -0.0010000000470054837
    vertex 417.6767859070208 -11.621407392025285 3.998999999952994
    vertex 417.6767859070208 -11.621407392025285 -0.0010000000470054837
  endloop
endfacet
facet normal -0.991444861373816 0.1305261922200089 0.0
  outer loop
    vertex 417.8911452609658 -10.821407392025284 3.998999999952994
    vertex 417.8366265830283 -11.235517864189319 -0.0010000000470054837
    vertex 417.8366265830283 -11.235517864189319 3.998999999952994
  endloop
endfacet
facet normal -0.991444861373816 0.1305261922200089 0.0
  outer loop
    vertex 417.8366265830283 -11.235517864189319 -0.0010000000470054837
    vertex 417.8911452609658 -10.821407392025284 3.998999999952994
    vertex 417.8911452609658 -10.821407392025284 -0.0010000000470054837
  endloop
endfacet
facet normal -0.991444861373816 -0.13052619222000936 -0.0
  outer loop
    vertex 417.8366265830283 -10.407296919861253 3.998999999952994
    vertex 417.8911452609658 -10.821407392025284 -0.0010000000470054837
    vertex 417.8911452609658 -10.821407392025284 3.998999999952994
  endloop
endfacet
facet normal -0.991444861373816 -0.13052619222000936 -0.0
  outer loop
    vertex 417.8911452609658 -10.821407392025284 -0.0010000000470054837
    vertex 417.8366265830283 -10.407296919861253 3.998999999952994
    vertex 417.8366265830283 -10.407296919861253 -0.0010000000470054837
  endloop
endfacet
facet normal -0.13052619222004416 0.9914448613738115 0.0
  outer loop
    vertex 416.2911452609658 -12.421407392025284 3.998999999952994
    vertex 416.70525573312983 -12.366888714087795 -0.0010000000470054837
    vertex 416.2911452609658 -12.421407392025284 -0.0010000000470054837
  endloop
endfacet
facet normal -0.13052619222004416 0.9914448613738115 0.0
  outer loop
    vertex 416.70525573312983 -12.366888714087795 -0.0010000000470054837
    vertex 416.2911452609658 -12.421407392025284 3.998999999952994
    vertex 416.70525573312983 -12.366888714087795 3.998999999952994
  endloop
endfacet
facet normal -0.9238795325112593 0.3826834323651565 0.0
  outer loop
    vertex 417.8366265830283 -11.235517864189319 3.998999999952994
    vertex 417.6767859070208 -11.621407392025285 -0.0010000000470054837
    vertex 417.6767859070208 -11.621407392025285 3.998999999952994
  endloop
endfacet
facet normal -0.9238795325112593 0.3826834323651565 0.0
  outer loop
    vertex 417.6767859070208 -11.621407392025285 -0.0010000000470054837
    vertex 417.8366265830283 -11.235517864189319 3.998999999952994
    vertex 417.8366265830283 -11.235517864189319 -0.0010000000470054837
  endloop
endfacet
facet normal 0.7933533402912478 -0.6087614290087042 0.0
  outer loop
    vertex 415.15977441106736 -9.690036542126808 -0.0010000000470054837
    vertex 414.90550461491074 -10.021407392025285 3.998999999952994
    vertex 414.90550461491074 -10.021407392025285 -0.0010000000470054837
  endloop
endfacet
facet normal 0.7933533402912478 -0.6087614290087042 0.0
  outer loop
    vertex 414.90550461491074 -10.021407392025285 3.998999999952994
    vertex 415.15977441106736 -9.690036542126808 -0.0010000000470054837
    vertex 415.15977441106736 -9.690036542126808 3.998999999952994
  endloop
endfacet
facet normal 0.6087614290087265 -0.7933533402912306 0.0
  outer loop
    vertex 415.4911452609658 -9.435766745970183 3.998999999952994
    vertex 415.15977441106736 -9.690036542126808 -0.0010000000470054837
    vertex 415.4911452609658 -9.435766745970183 -0.0010000000470054837
  endloop
endfacet
facet normal 0.6087614290087265 -0.7933533402912306 0.0
  outer loop
    vertex 415.15977441106736 -9.690036542126808 -0.0010000000470054837
    vertex 415.4911452609658 -9.435766745970183 3.998999999952994
    vertex 415.15977441106736 -9.690036542126808 3.998999999952994
  endloop
endfacet
facet normal 0.9238795325112594 -0.38268343236515584 0.0
  outer loop
    vertex 414.90550461491074 -10.021407392025285 -0.0010000000470054837
    vertex 414.7456639389033 -10.40729691986125 3.998999999952994
    vertex 414.7456639389033 -10.40729691986125 -0.0010000000470054837
  endloop
endfacet
facet normal 0.9238795325112594 -0.38268343236515584 0.0
  outer loop
    vertex 414.7456639389033 -10.40729691986125 3.998999999952994
    vertex 414.90550461491074 -10.021407392025285 -0.0010000000470054837
    vertex 414.90550461491074 -10.021407392025285 3.998999999952994
  endloop
endfacet
facet normal 0.7933533402912482 0.6087614290087039 0.0
  outer loop
    vertex 414.90550461491074 -11.621407392025285 -0.0010000000470054837
    vertex 415.15977441106736 -11.95277824192376 3.998999999952994
    vertex 415.15977441106736 -11.95277824192376 -0.0010000000470054837
  endloop
endfacet
facet normal 0.7933533402912482 0.6087614290087039 0.0
  outer loop
    vertex 415.15977441106736 -11.95277824192376 3.998999999952994
    vertex 414.90550461491074 -11.621407392025285 -0.0010000000470054837
    vertex 414.90550461491074 -11.621407392025285 3.998999999952994
  endloop
endfacet
facet normal -0.7933533402912487 -0.608761429008703 -0.0
  outer loop
    vertex 417.42251611086425 -9.690036542126808 3.998999999952994
    vertex 417.6767859070208 -10.021407392025285 -0.0010000000470054837
    vertex 417.6767859070208 -10.021407392025285 3.998999999952994
  endloop
endfacet
facet normal -0.7933533402912487 -0.608761429008703 -0.0
  outer loop
    vertex 417.6767859070208 -10.021407392025285 -0.0010000000470054837
    vertex 417.42251611086425 -9.690036542126808 3.998999999952994
    vertex 417.42251611086425 -9.690036542126808 -0.0010000000470054837
  endloop
endfacet
facet normal -0.6087614290087254 -0.7933533402912315 -0.0
  outer loop
    vertex 417.42251611086425 -9.690036542126808 3.998999999952994
    vertex 417.0911452609658 -9.435766745970183 -0.0010000000470054837
    vertex 417.42251611086425 -9.690036542126808 -0.0010000000470054837
  endloop
endfacet
facet normal -0.6087614290087254 -0.7933533402912315 -0.0
  outer loop
    vertex 417.0911452609658 -9.435766745970183 -0.0010000000470054837
    vertex 417.42251611086425 -9.690036542126808 3.998999999952994
    vertex 417.0911452609658 -9.435766745970183 3.998999999952994
  endloop
endfacet
facet normal 0.991444861373816 0.13052619222000925 0.0
  outer loop
    vertex 414.6911452609658 -10.821407392025284 -0.0010000000470054837
    vertex 414.7456639389033 -11.235517864189317 3.998999999952994
    vertex 414.7456639389033 -11.235517864189317 -0.0010000000470054837
  endloop
endfacet
facet normal 0.991444861373816 0.13052619222000925 0.0
  outer loop
    vertex 414.7456639389033 -11.235517864189317 3.998999999952994
    vertex 414.6911452609658 -10.821407392025284 -0.0010000000470054837
    vertex 414.6911452609658 -10.821407392025284 3.998999999952994
  endloop
endfacet
facet normal -0.6087614290087254 0.7933533402912315 0.0
  outer loop
    vertex 417.0911452609658 -12.207048038080385 3.998999999952994
    vertex 417.42251611086425 -11.952778241923761 -0.0010000000470054837
    vertex 417.0911452609658 -12.207048038080385 -0.0010000000470054837
  endloop
endfacet
facet normal -0.6087614290087254 0.7933533402912315 0.0
  outer loop
    vertex 417.42251611086425 -11.952778241923761 -0.0010000000470054837
    vertex 417.0911452609658 -12.207048038080385 3.998999999952994
    vertex 417.42251611086425 -11.952778241923761 3.998999999952994
  endloop
endfacet
facet normal 0.13052619222004416 0.9914448613738115 0.0
  outer loop
    vertex 415.8770347888017 -12.366888714087795 3.998999999952994
    vertex 416.2911452609658 -12.421407392025284 -0.0010000000470054837
    vertex 415.8770347888017 -12.366888714087795 -0.0010000000470054837
  endloop
endfacet
facet normal 0.13052619222004416 0.9914448613738115 0.0
  outer loop
    vertex 416.2911452609658 -12.421407392025284 -0.0010000000470054837
    vertex 415.8770347888017 -12.366888714087795 3.998999999952994
    vertex 416.2911452609658 -12.421407392025284 3.998999999952994
  endloop
endfacet
facet normal -0.13052619222004583 -0.9914448613738113 -0.0
  outer loop
    vertex 416.70525573312983 -9.275926069962775 3.998999999952994
    vertex 416.2911452609658 -9.221407392025284 -0.0010000000470054837
    vertex 416.70525573312983 -9.275926069962775 -0.0010000000470054837
  endloop
endfacet
facet normal -0.13052619222004583 -0.9914448613738113 -0.0
  outer loop
    vertex 416.2911452609658 -9.221407392025284 -0.0010000000470054837
    vertex 416.70525573312983 -9.275926069962775 3.998999999952994
    vertex 416.2911452609658 -9.221407392025284 3.998999999952994
  endloop
endfacet
facet normal 0.13052619222004497 -0.9914448613738113 0.0
  outer loop
    vertex 416.2911452609658 -9.221407392025284 3.998999999952994
    vertex 415.8770347888017 -9.275926069962773 -0.0010000000470054837
    vertex 416.2911452609658 -9.221407392025284 -0.0010000000470054837
  endloop
endfacet
facet normal 0.13052619222004497 -0.9914448613738113 0.0
  outer loop
    vertex 415.8770347888017 -9.275926069962773 -0.0010000000470054837
    vertex 416.2911452609658 -9.221407392025284 3.998999999952994
    vertex 415.8770347888017 -9.275926069962773 3.998999999952994
  endloop
endfacet
facet normal -7.049916206369692e-17 -9.596965956518958e-34 -1.0
  outer loop
    vertex 414.29114526096583 -7.908938559131003 -0.0010000000470054837
    vertex 414.7456639389033 -10.40729691986125 -0.0010000000470054837
    vertex 414.29114526096583 -13.821407392025284 -0.0010000000470054837
  endloop
endfacet
facet normal -7.049916206369692e-17 -9.596965956518958e-34 -1.0
  outer loop
    vertex 414.7456639389033 -10.40729691986125 -0.0010000000470054837
    vertex 414.29114526096583 -7.908938559131003 -0.0010000000470054837
    vertex 414.90550461491074 -10.021407392025285 -0.0010000000470054837
  endloop
endfacet
facet normal -7.049916206369692e-17 -9.596965956518958e-34 -1.0
  outer loop
    vertex 414.90550461491074 -10.021407392025285 -0.0010000000470054837
    vertex 414.29114526096583 -7.908938559131003 -0.0010000000470054837
    vertex 415.15977441106736 -9.690036542126808 -0.0010000000470054837
  endloop
endfacet
facet normal -7.049916206369692e-17 -9.596965956518958e-34 -1.0
  outer loop
    vertex 415.15977441106736 -9.690036542126808 -0.0010000000470054837
    vertex 414.29114526096583 -7.908938559131003 -0.0010000000470054837
    vertex 415.4911452609658 -9.435766745970183 -0.0010000000470054837
  endloop
endfacet
facet normal -7.049916206369692e-17 -9.596965956518958e-34 -1.0
  outer loop
    vertex 415.4911452609658 -9.435766745970183 -0.0010000000470054837
    vertex 414.29114526096583 -7.908938559131003 -0.0010000000470054837
    vertex 415.8770347888017 -9.275926069962773 -0.0010000000470054837
  endloop
endfacet
facet normal -7.049916206369692e-17 -9.596965956518958e-34 -1.0
  outer loop
    vertex 415.8770347888017 -9.275926069962773 -0.0010000000470054837
    vertex 414.29114526096583 -7.908938559131003 -0.0010000000470054837
    vertex 419.2911452609658 -7.908938559131005 -0.0010000000470054837
  endloop
endfacet
facet normal -7.049916206369692e-17 -9.596965956518958e-34 -1.0
  outer loop
    vertex 414.29114526096583 -13.821407392025284 -0.0010000000470054837
    vertex 414.7456639389033 -10.40729691986125 -0.0010000000470054837
    vertex 414.6911452609658 -10.821407392025284 -0.0010000000470054837
  endloop
endfacet
facet normal -7.049916206369692e-17 -9.596965956518958e-34 -1.0
  outer loop
    vertex 415.8770347888017 -9.275926069962773 -0.0010000000470054837
    vertex 419.2911452609658 -7.908938559131005 -0.0010000000470054837
    vertex 416.2911452609658 -9.221407392025284 -0.0010000000470054837
  endloop
endfacet
facet normal -7.049916206369692e-17 -9.596965956518958e-34 -1.0
  outer loop
    vertex 416.2911452609658 -9.221407392025284 -0.0010000000470054837
    vertex 419.2911452609658 -7.908938559131005 -0.0010000000470054837
    vertex 416.70525573312983 -9.275926069962775 -0.0010000000470054837
  endloop
endfacet
facet normal -7.049916206369692e-17 -9.596965956518958e-34 -1.0
  outer loop
    vertex 416.70525573312983 -9.275926069962775 -0.0010000000470054837
    vertex 419.2911452609658 -7.908938559131005 -0.0010000000470054837
    vertex 417.0911452609658 -9.435766745970183 -0.0010000000470054837
  endloop
endfacet
facet normal -7.049916206369692e-17 -9.596965956518958e-34 -1.0
  outer loop
    vertex 417.0911452609658 -9.435766745970183 -0.0010000000470054837
    vertex 419.2911452609658 -7.908938559131005 -0.0010000000470054837
    vertex 417.42251611086425 -9.690036542126808 -0.0010000000470054837
  endloop
endfacet
facet normal -7.049916206369692e-17 -9.596965956518958e-34 -1.0
  outer loop
    vertex 417.42251611086425 -9.690036542126808 -0.0010000000470054837
    vertex 419.2911452609658 -7.908938559131005 -0.0010000000470054837
    vertex 417.6767859070208 -10.021407392025285 -0.0010000000470054837
  endloop
endfacet
facet normal -7.049916206369692e-17 -9.596965956518958e-34 -1.0
  outer loop
    vertex 417.6767859070208 -10.021407392025285 -0.0010000000470054837
    vertex 419.2911452609658 -7.908938559131005 -0.0010000000470054837
    vertex 417.8366265830283 -10.407296919861253 -0.0010000000470054837
  endloop
endfacet
facet normal -7.049916206369692e-17 -9.596965956518958e-34 -1.0
  outer loop
    vertex 417.8366265830283 -10.407296919861253 -0.0010000000470054837
    vertex 419.2911452609658 -7.908938559131005 -0.0010000000470054837
    vertex 417.8911452609658 -10.821407392025284 -0.0010000000470054837
  endloop
endfacet
facet normal -7.049916206369692e-17 -9.596965956518958e-34 -1.0
  outer loop
    vertex 414.29114526096583 -13.821407392025284 -0.0010000000470054837
    vertex 415.4911452609658 -12.207048038080385 -0.0010000000470054837
    vertex 419.2911452609658 -13.821407392025284 -0.0010000000470054837
  endloop
endfacet
facet normal -7.049916206369692e-17 -9.596965956518958e-34 -1.0
  outer loop
    vertex 415.4911452609658 -12.207048038080385 -0.0010000000470054837
    vertex 414.29114526096583 -13.821407392025284 -0.0010000000470054837
    vertex 415.15977441106736 -11.95277824192376 -0.0010000000470054837
  endloop
endfacet
facet normal -7.049916206369692e-17 -9.596965956518958e-34 -1.0
  outer loop
    vertex 415.15977441106736 -11.95277824192376 -0.0010000000470054837
    vertex 414.29114526096583 -13.821407392025284 -0.0010000000470054837
    vertex 414.90550461491074 -11.621407392025285 -0.0010000000470054837
  endloop
endfacet
facet normal -7.049916206369692e-17 -9.596965956518958e-34 -1.0
  outer loop
    vertex 414.90550461491074 -11.621407392025285 -0.0010000000470054837
    vertex 414.29114526096583 -13.821407392025284 -0.0010000000470054837
    vertex 414.7456639389033 -11.235517864189317 -0.0010000000470054837
  endloop
endfacet
facet normal -7.049916206369692e-17 -9.596965956518958e-34 -1.0
  outer loop
    vertex 414.7456639389033 -11.235517864189317 -0.0010000000470054837
    vertex 414.29114526096583 -13.821407392025284 -0.0010000000470054837
    vertex 414.6911452609658 -10.821407392025284 -0.0010000000470054837
  endloop
endfacet
facet normal -7.049916206369692e-17 -9.596965956518958e-34 -1.0
  outer loop
    vertex 419.2911452609658 -13.821407392025284 -0.0010000000470054837
    vertex 415.4911452609658 -12.207048038080385 -0.0010000000470054837
    vertex 415.8770347888017 -12.366888714087795 -0.0010000000470054837
  endloop
endfacet
facet normal -7.049916206369692e-17 -9.596965956518958e-34 -1.0
  outer loop
    vertex 419.2911452609658 -13.821407392025284 -0.0010000000470054837
    vertex 415.8770347888017 -12.366888714087795 -0.0010000000470054837
    vertex 416.2911452609658 -12.421407392025284 -0.0010000000470054837
  endloop
endfacet
facet normal -7.049916206369692e-17 -9.596965956518958e-34 -1.0
  outer loop
    vertex 419.2911452609658 -13.821407392025284 -0.0010000000470054837
    vertex 416.2911452609658 -12.421407392025284 -0.0010000000470054837
    vertex 416.70525573312983 -12.366888714087795 -0.0010000000470054837
  endloop
endfacet
facet normal -7.049916206369692e-17 -9.596965956518958e-34 -1.0
  outer loop
    vertex 419.2911452609658 -13.821407392025284 -0.0010000000470054837
    vertex 416.70525573312983 -12.366888714087795 -0.0010000000470054837
    vertex 417.0911452609658 -12.207048038080385 -0.0010000000470054837
  endloop
endfacet
facet normal -7.049916206369692e-17 -9.596965956518958e-34 -1.0
  outer loop
    vertex 419.2911452609658 -13.821407392025284 -0.0010000000470054837
    vertex 417.0911452609658 -12.207048038080385 -0.0010000000470054837
    vertex 417.42251611086425 -11.952778241923761 -0.0010000000470054837
  endloop
endfacet
facet normal -7.049916206369692e-17 -9.596965956518958e-34 -1.0
  outer loop
    vertex 419.2911452609658 -13.821407392025284 -0.0010000000470054837
    vertex 417.42251611086425 -11.952778241923761 -0.0010000000470054837
    vertex 417.6767859070208 -11.621407392025285 -0.0010000000470054837
  endloop
endfacet
facet normal -7.049916206369692e-17 -9.596965956518958e-34 -1.0
  outer loop
    vertex 419.2911452609658 -13.821407392025284 -0.0010000000470054837
    vertex 417.6767859070208 -11.621407392025285 -0.0010000000470054837
    vertex 417.8366265830283 -11.235517864189319 -0.0010000000470054837
  endloop
endfacet
facet normal -7.049916206369692e-17 -9.596965956518958e-34 -1.0
  outer loop
    vertex 419.2911452609658 -13.821407392025284 -0.0010000000470054837
    vertex 417.8366265830283 -11.235517864189319 -0.0010000000470054837
    vertex 417.8911452609658 -10.821407392025284 -0.0010000000470054837
  endloop
endfacet
facet normal -7.049916206369692e-17 -9.596965956518958e-34 -1.0
  outer loop
    vertex 419.2911452609658 -13.821407392025284 -0.0010000000470054837
    vertex 417.8911452609658 -10.821407392025284 -0.0010000000470054837
    vertex 419.2911452609658 -7.908938559131005 -0.0010000000470054837
  endloop
endfacet
facet normal -0.7720141211097608 -0.0 -0.6356053782081489
  outer loop
    vertex 413.5860349282148 -7.908938559131003 1.050299940237599
    vertex 413.99026957047715 -13.821407392025284 0.5593115647960266
    vertex 413.5860349282148 -13.821407392025284 1.050299940237599
  endloop
endfacet
facet normal -0.7720141211097608 -0.0 -0.6356053782081489
  outer loop
    vertex 413.99026957047715 -13.821407392025284 0.5593115647960266
    vertex 413.5860349282148 -7.908938559131003 1.050299940237599
    vertex 413.99026957047715 -7.908938559131003 0.5593115647960266
  endloop
endfacet
facet normal -0.8810156450055916 8.016665744383567e-31 -0.4730871307226413
  outer loop
    vertex 413.99026957047715 -7.908938559131003 0.5593115647960266
    vertex 414.29114526096583 -13.821407392025284 -0.0010000000470054837
    vertex 413.99026957047715 -13.821407392025284 0.5593115647960266
  endloop
endfacet
facet normal -0.8810156450055916 8.016665744383567e-31 -0.4730871307226413
  outer loop
    vertex 414.29114526096583 -13.821407392025284 -0.0010000000470054837
    vertex 413.99026957047715 -7.908938559131003 0.5593115647960266
    vertex 414.29114526096583 -7.908938559131003 -0.0010000000470054837
  endloop
endfacet
facet normal -0.6334494644484013 -0.0 -0.773784062894832
  outer loop
    vertex 413.5860349282148 -7.908938559131003 1.050299940237599
    vertex 413.0939208986977 -13.821407392025284 1.453163456550986
    vertex 413.0939208986977 -7.908938559131003 1.453163456550986
  endloop
endfacet
facet normal -0.6334494644484013 -0.0 -0.773784062894832
  outer loop
    vertex 413.0939208986977 -13.821407392025284 1.453163456550986
    vertex 413.5860349282148 -7.908938559131003 1.050299940237599
    vertex 413.5860349282148 -13.821407392025284 1.050299940237599
  endloop
endfacet
facet normal 0.6334494644484017 0.0 -0.7737840628948318
  outer loop
    vertex 409.4883696232338 -7.908938559131003 1.453163456550986
    vertex 408.99625559371674 -13.821407392025284 1.050299940237599
    vertex 408.99625559371674 -7.908938559131003 1.050299940237599
  endloop
endfacet
facet normal 0.6334494644484017 0.0 -0.7737840628948318
  outer loop
    vertex 408.99625559371674 -13.821407392025284 1.050299940237599
    vertex 409.4883696232338 -7.908938559131003 1.453163456550986
    vertex 409.4883696232338 -13.821407392025284 1.453163456550986
  endloop
endfacet
facet normal 0.7720141211097608 0.0 -0.6356053782081489
  outer loop
    vertex 408.59202095145434 -7.908938559131003 0.5593115647960266
    vertex 408.99625559371674 -13.821407392025284 1.050299940237599
    vertex 408.59202095145434 -13.821407392025284 0.5593115647960266
  endloop
endfacet
facet normal 0.7720141211097608 0.0 -0.6356053782081489
  outer loop
    vertex 408.99625559371674 -13.821407392025284 1.050299940237599
    vertex 408.59202095145434 -7.908938559131003 0.5593115647960266
    vertex 408.99625559371674 -7.908938559131003 1.050299940237599
  endloop
endfacet
facet normal 0.2897841486884398 0.0 -0.95709202648905
  outer loop
    vertex 410.65821316630735 -7.908938559131003 1.936773041364714
    vertex 410.04951826502963 -13.821407392025284 1.7524750544461192
    vertex 410.04951826502963 -7.908938559131003 1.7524750544461192
  endloop
endfacet
facet normal 0.2897841486884398 0.0 -0.95709202648905
  outer loop
    vertex 410.04951826502963 -13.821407392025284 1.7524750544461192
    vertex 410.65821316630735 -7.908938559131003 1.936773041364714
    vertex 410.65821316630735 -13.821407392025284 1.936773041364714
  endloop
endfacet
facet normal 0.0 0.0 -1.0
  outer loop
    vertex 408.2911452609657 -7.908938559131003 -0.0010000000470054837
    vertex 403.2911452609658 -13.821407392025284 -0.0010000000470054837
    vertex 403.2911452609658 -7.908938559131005 -0.0010000000470054837
  endloop
endfacet
facet normal 0.0 0.0 -1.0
  outer loop
    vertex 403.2911452609658 -13.821407392025284 -0.0010000000470054837
    vertex 408.2911452609657 -7.908938559131003 -0.0010000000470054837
    vertex 408.2911452609657 -13.821407392025284 -0.0010000000470054837
  endloop
endfacet
facet normal -0.09784364181872253 -0.0 -0.9952017995138722
  outer loop
    vertex 411.92407735562415 -7.908938559131003 1.936773041364714
    vertex 411.2911452609658 -13.821407392025284 1.9989999999529937
    vertex 411.2911452609658 -7.908938559131003 1.9989999999529937
  endloop
endfacet
facet normal -0.09784364181872253 -0.0 -0.9952017995138722
  outer loop
    vertex 411.2911452609658 -13.821407392025284 1.9989999999529937
    vertex 411.92407735562415 -7.908938559131003 1.936773041364714
    vertex 411.92407735562415 -13.821407392025284 1.936773041364714
  endloop
endfacet
facet normal 0.09784364181872253 0.0 -0.9952017995138722
  outer loop
    vertex 411.2911452609658 -7.908938559131003 1.9989999999529937
    vertex 410.65821316630735 -13.821407392025284 1.936773041364714
    vertex 410.65821316630735 -7.908938559131003 1.936773041364714
  endloop
endfacet
facet normal 0.09784364181872253 0.0 -0.9952017995138722
  outer loop
    vertex 410.65821316630735 -13.821407392025284 1.936773041364714
    vertex 411.2911452609658 -7.908938559131003 1.9989999999529937
    vertex 411.2911452609658 -13.821407392025284 1.9989999999529937
  endloop
endfacet
facet normal 0.47062780249966896 0.0 -0.8823318375273175
  outer loop
    vertex 410.04951826502963 -7.908938559131003 1.7524750544461192
    vertex 409.4883696232338 -13.821407392025284 1.453163456550986
    vertex 409.4883696232338 -7.908938559131003 1.453163456550986
  endloop
endfacet
facet normal 0.47062780249966896 0.0 -0.8823318375273175
  outer loop
    vertex 409.4883696232338 -13.821407392025284 1.453163456550986
    vertex 410.04951826502963 -7.908938559131003 1.7524750544461192
    vertex 410.04951826502963 -13.821407392025284 1.7524750544461192
  endloop
endfacet
facet normal -0.47062780249966896 -0.0 -0.8823318375273175
  outer loop
    vertex 413.0939208986977 -7.908938559131003 1.453163456550986
    vertex 412.53277225690186 -13.821407392025284 1.7524750544461192
    vertex 412.53277225690186 -7.908938559131003 1.7524750544461192
  endloop
endfacet
facet normal -0.47062780249966896 -0.0 -0.8823318375273175
  outer loop
    vertex 412.53277225690186 -13.821407392025284 1.7524750544461192
    vertex 413.0939208986977 -7.908938559131003 1.453163456550986
    vertex 413.0939208986977 -13.821407392025284 1.453163456550986
  endloop
endfacet
facet normal -0.2897841486884398 -0.0 -0.95709202648905
  outer loop
    vertex 412.53277225690186 -7.908938559131003 1.7524750544461192
    vertex 411.92407735562415 -13.821407392025284 1.936773041364714
    vertex 411.92407735562415 -7.908938559131003 1.936773041364714
  endloop
endfacet
facet normal -0.2897841486884398 -0.0 -0.95709202648905
  outer loop
    vertex 411.92407735562415 -13.821407392025284 1.936773041364714
    vertex 412.53277225690186 -7.908938559131003 1.7524750544461192
    vertex 412.53277225690186 -13.821407392025284 1.7524750544461192
  endloop
endfacet
facet normal 0.8810156450055916 -8.016665744383567e-31 -0.4730871307226413
  outer loop
    vertex 408.2911452609657 -7.908938559131003 -0.0010000000470054837
    vertex 408.59202095145434 -13.821407392025284 0.5593115647960266
    vertex 408.2911452609657 -13.821407392025284 -0.0010000000470054837
  endloop
endfacet
facet normal 0.8810156450055916 -8.016665744383567e-31 -0.4730871307226413
  outer loop
    vertex 408.59202095145434 -13.821407392025284 0.5593115647960266
    vertex 408.2911452609657 -7.908938559131003 -0.0010000000470054837
    vertex 408.59202095145434 -7.908938559131003 0.5593115647960266
  endloop
endfacet
facet normal 0.0 0.0 1.0
  outer loop
    vertex 408.2911452609657 -13.821407392025284 3.998999999952994
    vertex 415.4911452609658 -12.207048038080385 3.998999999952994
    vertex 408.2911452609657 -7.9089385591310055 3.998999999952994
  endloop
endfacet
facet normal 0.0 0.0 1.0
  outer loop
    vertex 415.4911452609658 -12.207048038080385 3.998999999952994
    vertex 408.2911452609657 -13.821407392025284 3.998999999952994
    vertex 419.2911452609658 -13.821407392025284 3.998999999952994
  endloop
endfacet
facet normal 0.0 0.0 1.0
  outer loop
    vertex 408.2911452609657 -7.9089385591310055 3.998999999952994
    vertex 415.4911452609658 -12.207048038080385 3.998999999952994
    vertex 415.15977441106736 -11.95277824192376 3.998999999952994
  endloop
endfacet
facet normal 0.0 0.0 1.0
  outer loop
    vertex 408.2911452609657 -7.9089385591310055 3.998999999952994
    vertex 415.15977441106736 -11.95277824192376 3.998999999952994
    vertex 414.90550461491074 -11.621407392025285 3.998999999952994
  endloop
endfacet
facet normal 0.0 0.0 1.0
  outer loop
    vertex 408.2911452609657 -7.9089385591310055 3.998999999952994
    vertex 414.90550461491074 -11.621407392025285 3.998999999952994
    vertex 414.7456639389033 -11.235517864189317 3.998999999952994
  endloop
endfacet
facet normal 0.0 0.0 1.0
  outer loop
    vertex 408.2911452609657 -7.9089385591310055 3.998999999952994
    vertex 414.7456639389033 -11.235517864189317 3.998999999952994
    vertex 414.6911452609658 -10.821407392025284 3.998999999952994
  endloop
endfacet
facet normal 0.0 0.0 1.0
  outer loop
    vertex 415.4911452609658 -12.207048038080385 3.998999999952994
    vertex 419.2911452609658 -13.821407392025284 3.998999999952994
    vertex 415.8770347888017 -12.366888714087795 3.998999999952994
  endloop
endfacet
facet normal 0.0 0.0 1.0
  outer loop
    vertex 415.8770347888017 -12.366888714087795 3.998999999952994
    vertex 419.2911452609658 -13.821407392025284 3.998999999952994
    vertex 416.2911452609658 -12.421407392025284 3.998999999952994
  endloop
endfacet
facet normal 0.0 0.0 1.0
  outer loop
    vertex 416.2911452609658 -12.421407392025284 3.998999999952994
    vertex 419.2911452609658 -13.821407392025284 3.998999999952994
    vertex 416.70525573312983 -12.366888714087795 3.998999999952994
  endloop
endfacet
facet normal 0.0 0.0 1.0
  outer loop
    vertex 416.70525573312983 -12.366888714087795 3.998999999952994
    vertex 419.2911452609658 -13.821407392025284 3.998999999952994
    vertex 417.0911452609658 -12.207048038080385 3.998999999952994
  endloop
endfacet
facet normal 0.0 0.0 1.0
  outer loop
    vertex 417.0911452609658 -12.207048038080385 3.998999999952994
    vertex 419.2911452609658 -13.821407392025284 3.998999999952994
    vertex 417.42251611086425 -11.952778241923761 3.998999999952994
  endloop
endfacet
facet normal 0.0 0.0 1.0
  outer loop
    vertex 417.42251611086425 -11.952778241923761 3.998999999952994
    vertex 419.2911452609658 -13.821407392025284 3.998999999952994
    vertex 417.6767859070208 -11.621407392025285 3.998999999952994
  endloop
endfacet
facet normal 0.0 0.0 1.0
  outer loop
    vertex 417.6767859070208 -11.621407392025285 3.998999999952994
    vertex 419.2911452609658 -13.821407392025284 3.998999999952994
    vertex 417.8366265830283 -11.235517864189319 3.998999999952994
  endloop
endfacet
facet normal 0.0 0.0 1.0
  outer loop
    vertex 417.8366265830283 -11.235517864189319 3.998999999952994
    vertex 419.2911452609658 -13.821407392025284 3.998999999952994
    vertex 417.8911452609658 -10.821407392025284 3.998999999952994
  endloop
endfacet
facet normal 0.0 0.0 1.0
  outer loop
    vertex 408.2911452609657 -7.9089385591310055 3.998999999952994
    vertex 415.8770347888017 -9.275926069962773 3.998999999952994
    vertex 419.2911452609658 -7.908938559131005 3.998999999952994
  endloop
endfacet
facet normal 0.0 0.0 1.0
  outer loop
    vertex 415.8770347888017 -9.275926069962773 3.998999999952994
    vertex 408.2911452609657 -7.9089385591310055 3.998999999952994
    vertex 415.4911452609658 -9.435766745970183 3.998999999952994
  endloop
endfacet
facet normal 0.0 0.0 1.0
  outer loop
    vertex 415.4911452609658 -9.435766745970183 3.998999999952994
    vertex 408.2911452609657 -7.9089385591310055 3.998999999952994
    vertex 415.15977441106736 -9.690036542126808 3.998999999952994
  endloop
endfacet
facet normal 0.0 0.0 1.0
  outer loop
    vertex 415.15977441106736 -9.690036542126808 3.998999999952994
    vertex 408.2911452609657 -7.9089385591310055 3.998999999952994
    vertex 414.90550461491074 -10.021407392025285 3.998999999952994
  endloop
endfacet
facet normal 0.0 0.0 1.0
  outer loop
    vertex 414.90550461491074 -10.021407392025285 3.998999999952994
    vertex 408.2911452609657 -7.9089385591310055 3.998999999952994
    vertex 414.7456639389033 -10.40729691986125 3.998999999952994
  endloop
endfacet
facet normal 0.0 0.0 1.0
  outer loop
    vertex 414.7456639389033 -10.40729691986125 3.998999999952994
    vertex 408.2911452609657 -7.9089385591310055 3.998999999952994
    vertex 414.6911452609658 -10.821407392025284 3.998999999952994
  endloop
endfacet
facet normal 0.0 0.0 1.0
  outer loop
    vertex 419.2911452609658 -7.908938559131005 3.998999999952994
    vertex 415.8770347888017 -9.275926069962773 3.998999999952994
    vertex 416.2911452609658 -9.221407392025284 3.998999999952994
  endloop
endfacet
facet normal 0.0 0.0 1.0
  outer loop
    vertex 419.2911452609658 -7.908938559131005 3.998999999952994
    vertex 416.2911452609658 -9.221407392025284 3.998999999952994
    vertex 416.70525573312983 -9.275926069962775 3.998999999952994
  endloop
endfacet
facet normal 0.0 0.0 1.0
  outer loop
    vertex 419.2911452609658 -7.908938559131005 3.998999999952994
    vertex 416.70525573312983 -9.275926069962775 3.998999999952994
    vertex 417.0911452609658 -9.435766745970183 3.998999999952994
  endloop
endfacet
facet normal 0.0 0.0 1.0
  outer loop
    vertex 419.2911452609658 -7.908938559131005 3.998999999952994
    vertex 417.0911452609658 -9.435766745970183 3.998999999952994
    vertex 417.42251611086425 -9.690036542126808 3.998999999952994
  endloop
endfacet
facet normal 0.0 0.0 1.0
  outer loop
    vertex 419.2911452609658 -7.908938559131005 3.998999999952994
    vertex 417.42251611086425 -9.690036542126808 3.998999999952994
    vertex 417.6767859070208 -10.021407392025285 3.998999999952994
  endloop
endfacet
facet normal 0.0 0.0 1.0
  outer loop
    vertex 419.2911452609658 -7.908938559131005 3.998999999952994
    vertex 417.6767859070208 -10.021407392025285 3.998999999952994
    vertex 417.8366265830283 -10.407296919861253 3.998999999952994
  endloop
endfacet
facet normal 0.0 0.0 1.0
  outer loop
    vertex 419.2911452609658 -7.908938559131005 3.998999999952994
    vertex 417.8366265830283 -10.407296919861253 3.998999999952994
    vertex 417.8911452609658 -10.821407392025284 3.998999999952994
  endloop
endfacet
facet normal 0.0 0.0 1.0
  outer loop
    vertex 419.2911452609658 -7.908938559131005 3.998999999952994
    vertex 417.8911452609658 -10.821407392025284 3.998999999952994
    vertex 419.2911452609658 -13.821407392025284 3.998999999952994
  endloop
endfacet
facet normal 1.0 0.0 0.0
  outer loop
    vertex 419.2911452609658 -7.908938559131005 -0.0010000000470054837
    vertex 419.2911452609658 -13.821407392025284 3.998999999952994
    vertex 419.2911452609658 -13.821407392025284 -0.0010000000470054837
  endloop
endfacet
facet normal 1.0 0.0 0.0
  outer loop
    vertex 419.2911452609658 -13.821407392025284 3.998999999952994
    vertex 419.2911452609658 -7.908938559131005 -0.0010000000470054837
    vertex 419.2911452609658 -7.908938559131005 3.998999999952994
  endloop
endfacet
facet normal -4.024060804994877e-17 1.0 2.1452443633028925e-16
  outer loop
    vertex 403.2911452609658 -7.9089385591310055 1.9989999999529937
    vertex 408.2911452609657 -7.908938559131003 -0.0010000000470054837
    vertex 403.2911452609658 -7.908938559131005 -0.0010000000470054837
  endloop
endfacet
facet normal -4.024060804994877e-17 1.0 2.1452443633028925e-16
  outer loop
    vertex 408.2911452609657 -7.908938559131003 -0.0010000000470054837
    vertex 403.2911452609658 -7.9089385591310055 1.9989999999529937
    vertex 408.59202095145434 -7.908938559131003 0.5593115647960266
  endloop
endfacet
facet normal -4.024060804994877e-17 1.0 2.1452443633028925e-16
  outer loop
    vertex 408.59202095145434 -7.908938559131003 0.5593115647960266
    vertex 403.2911452609658 -7.9089385591310055 1.9989999999529937
    vertex 408.99625559371674 -7.908938559131003 1.050299940237599
  endloop
endfacet
facet normal -4.024060804994877e-17 1.0 2.1452443633028925e-16
  outer loop
    vertex 408.99625559371674 -7.908938559131003 1.050299940237599
    vertex 403.2911452609658 -7.9089385591310055 1.9989999999529937
    vertex 409.4883696232338 -7.908938559131003 1.453163456550986
  endloop
endfacet
facet normal -4.024060804994877e-17 1.0 2.1452443633028925e-16
  outer loop
    vertex 409.4883696232338 -7.908938559131003 1.453163456550986
    vertex 403.2911452609658 -7.9089385591310055 1.9989999999529937
    vertex 410.04951826502963 -7.908938559131003 1.7524750544461192
  endloop
endfacet
facet normal -4.024060804994877e-17 1.0 2.1452443633028925e-16
  outer loop
    vertex 410.04951826502963 -7.908938559131003 1.7524750544461192
    vertex 403.2911452609658 -7.9089385591310055 1.9989999999529937
    vertex 410.65821316630735 -7.908938559131003 1.936773041364714
  endloop
endfacet
facet normal -4.024060804994877e-17 1.0 2.1452443633028925e-16
  outer loop
    vertex 410.65821316630735 -7.908938559131003 1.936773041364714
    vertex 403.2911452609658 -7.9089385591310055 1.9989999999529937
    vertex 411.2911452609658 -7.908938559131003 1.9989999999529937
  endloop
endfacet
facet normal -4.024060804994877e-17 1.0 2.1452443633028925e-16
  outer loop
    vertex 411.2911452609658 -7.908938559131003 1.9989999999529937
    vertex 403.2911452609658 -7.9089385591310055 1.9989999999529937
    vertex 408.2911452609657 -7.9089385591310055 3.998999999952994
  endloop
endfacet
facet normal -4.024060804994877e-17 1.0 2.1452443633028925e-16
  outer loop
    vertex 413.99026957047715 -7.908938559131003 0.5593115647960266
    vertex 419.2911452609658 -7.908938559131005 -0.0010000000470054837
    vertex 414.29114526096583 -7.908938559131003 -0.0010000000470054837
  endloop
endfacet
facet normal -4.024060804994877e-17 1.0 2.1452443633028925e-16
  outer loop
    vertex 419.2911452609658 -7.908938559131005 -0.0010000000470054837
    vertex 413.99026957047715 -7.908938559131003 0.5593115647960266
    vertex 419.2911452609658 -7.908938559131005 3.998999999952994
  endloop
endfacet
facet normal -4.024060804994877e-17 1.0 2.1452443633028925e-16
  outer loop
    vertex 419.2911452609658 -7.908938559131005 3.998999999952994
    vertex 413.99026957047715 -7.908938559131003 0.5593115647960266
    vertex 413.5860349282148 -7.908938559131003 1.050299940237599
  endloop
endfacet
facet normal -4.024060804994877e-17 1.0 2.1452443633028925e-16
  outer loop
    vertex 419.2911452609658 -7.908938559131005 3.998999999952994
    vertex 413.5860349282148 -7.908938559131003 1.050299940237599
    vertex 413.0939208986977 -7.908938559131003 1.453163456550986
  endloop
endfacet
facet normal -4.024060804994877e-17 1.0 2.1452443633028925e-16
  outer loop
    vertex 419.2911452609658 -7.908938559131005 3.998999999952994
    vertex 413.0939208986977 -7.908938559131003 1.453163456550986
    vertex 412.53277225690186 -7.908938559131003 1.7524750544461192
  endloop
endfacet
facet normal -4.024060804994877e-17 1.0 2.1452443633028925e-16
  outer loop
    vertex 419.2911452609658 -7.908938559131005 3.998999999952994
    vertex 412.53277225690186 -7.908938559131003 1.7524750544461192
    vertex 411.92407735562415 -7.908938559131003 1.936773041364714
  endloop
endfacet
facet normal -4.024060804994877e-17 1.0 2.1452443633028925e-16
  outer loop
    vertex 419.2911452609658 -7.908938559131005 3.998999999952994
    vertex 411.92407735562415 -7.908938559131003 1.936773041364714
    vertex 411.2911452609658 -7.908938559131003 1.9989999999529937
  endloop
endfacet
facet normal -4.024060804994877e-17 1.0 2.1452443633028925e-16
  outer loop
    vertex 419.2911452609658 -7.908938559131005 3.998999999952994
    vertex 411.2911452609658 -7.908938559131003 1.9989999999529937
    vertex 408.2911452609657 -7.9089385591310055 3.998999999952994
  endloop
endfacet
facet normal -1.0 0.0 0.0
  outer loop
    vertex 403.2911452609658 -7.9089385591310055 1.9989999999529937
    vertex 403.2911452609658 -13.821407392025284 -0.0010000000470054837
    vertex 403.2911452609658 -13.821407392025284 1.9989999999529937
  endloop
endfacet
facet normal -1.0 0.0 0.0
  outer loop
    vertex 403.2911452609658 -13.821407392025284 -0.0010000000470054837
    vertex 403.2911452609658 -7.9089385591310055 1.9989999999529937
    vertex 403.2911452609658 -7.908938559131005 -0.0010000000470054837
  endloop
endfacet
facet normal -2.119012943227915e-33 -1.0 8.165208135347059e-32
  outer loop
    vertex 419.2911452609658 -13.821407392025284 3.998999999952994
    vertex 414.29114526096583 -13.821407392025284 -0.0010000000470054837
    vertex 419.2911452609658 -13.821407392025284 -0.0010000000470054837
  endloop
endfacet
facet normal -2.119012943227915e-33 -1.0 8.165208135347059e-32
  outer loop
    vertex 414.29114526096583 -13.821407392025284 -0.0010000000470054837
    vertex 419.2911452609658 -13.821407392025284 3.998999999952994
    vertex 413.99026957047715 -13.821407392025284 0.5593115647960266
  endloop
endfacet
facet normal -2.119012943227915e-33 -1.0 8.165208135347059e-32
  outer loop
    vertex 413.99026957047715 -13.821407392025284 0.5593115647960266
    vertex 419.2911452609658 -13.821407392025284 3.998999999952994
    vertex 413.5860349282148 -13.821407392025284 1.050299940237599
  endloop
endfacet
facet normal -2.119012943227915e-33 -1.0 8.165208135347059e-32
  outer loop
    vertex 413.5860349282148 -13.821407392025284 1.050299940237599
    vertex 419.2911452609658 -13.821407392025284 3.998999999952994
    vertex 413.0939208986977 -13.821407392025284 1.453163456550986
  endloop
endfacet
facet normal -2.119012943227915e-33 -1.0 8.165208135347059e-32
  outer loop
    vertex 413.0939208986977 -13.821407392025284 1.453163456550986
    vertex 419.2911452609658 -13.821407392025284 3.998999999952994
    vertex 412.53277225690186 -13.821407392025284 1.7524750544461192
  endloop
endfacet
facet normal -2.119012943227915e-33 -1.0 8.165208135347059e-32
  outer loop
    vertex 412.53277225690186 -13.821407392025284 1.7524750544461192
    vertex 419.2911452609658 -13.821407392025284 3.998999999952994
    vertex 411.92407735562415 -13.821407392025284 1.936773041364714
  endloop
endfacet
facet normal -2.119012943227915e-33 -1.0 8.165208135347059e-32
  outer loop
    vertex 411.92407735562415 -13.821407392025284 1.936773041364714
    vertex 419.2911452609658 -13.821407392025284 3.998999999952994
    vertex 411.2911452609658 -13.821407392025284 1.9989999999529937
  endloop
endfacet
facet normal -2.119012943227915e-33 -1.0 8.165208135347059e-32
  outer loop
    vertex 411.2911452609658 -13.821407392025284 1.9989999999529937
    vertex 419.2911452609658 -13.821407392025284 3.998999999952994
    vertex 403.2911452609658 -13.821407392025284 1.9989999999529937
  endloop
endfacet
facet normal -2.119012943227915e-33 -1.0 8.165208135347059e-32
  outer loop
    vertex 403.2911452609658 -13.821407392025284 1.9989999999529937
    vertex 419.2911452609658 -13.821407392025284 3.998999999952994
    vertex 408.2911452609657 -13.821407392025284 3.998999999952994
  endloop
endfacet
facet normal -2.119012943227915e-33 -1.0 8.165208135347059e-32
  outer loop
    vertex 408.59202095145434 -13.821407392025284 0.5593115647960266
    vertex 403.2911452609658 -13.821407392025284 -0.0010000000470054837
    vertex 408.2911452609657 -13.821407392025284 -0.0010000000470054837
  endloop
endfacet
facet normal -2.119012943227915e-33 -1.0 8.165208135347059e-32
  outer loop
    vertex 403.2911452609658 -13.821407392025284 -0.0010000000470054837
    vertex 408.59202095145434 -13.821407392025284 0.5593115647960266
    vertex 403.2911452609658 -13.821407392025284 1.9989999999529937
  endloop
endfacet
facet normal -2.119012943227915e-33 -1.0 8.165208135347059e-32
  outer loop
    vertex 403.2911452609658 -13.821407392025284 1.9989999999529937
    vertex 408.59202095145434 -13.821407392025284 0.5593115647960266
    vertex 408.99625559371674 -13.821407392025284 1.050299940237599
  endloop
endfacet
facet normal -2.119012943227915e-33 -1.0 8.165208135347059e-32
  outer loop
    vertex 403.2911452609658 -13.821407392025284 1.9989999999529937
    vertex 408.99625559371674 -13.821407392025284 1.050299940237599
    vertex 409.4883696232338 -13.821407392025284 1.453163456550986
  endloop
endfacet
facet normal -2.119012943227915e-33 -1.0 8.165208135347059e-32
  outer loop
    vertex 403.2911452609658 -13.821407392025284 1.9989999999529937
    vertex 409.4883696232338 -13.821407392025284 1.453163456550986
    vertex 410.04951826502963 -13.821407392025284 1.7524750544461192
  endloop
endfacet
facet normal -2.119012943227915e-33 -1.0 8.165208135347059e-32
  outer loop
    vertex 403.2911452609658 -13.821407392025284 1.9989999999529937
    vertex 410.04951826502963 -13.821407392025284 1.7524750544461192
    vertex 410.65821316630735 -13.821407392025284 1.936773041364714
  endloop
endfacet
facet normal -2.119012943227915e-33 -1.0 8.165208135347059e-32
  outer loop
    vertex 403.2911452609658 -13.821407392025284 1.9989999999529937
    vertex 410.65821316630735 -13.821407392025284 1.936773041364714
    vertex 411.2911452609658 -13.821407392025284 1.9989999999529937
  endloop
endfacet
facet normal -0.37139067635410444 -1.486281150558281e-17 0.9284766908852592
  outer loop
    vertex 408.2911452609657 -13.821407392025284 3.998999999952994
    vertex 403.2911452609658 -7.9089385591310055 1.9989999999529937
    vertex 403.2911452609658 -13.821407392025284 1.9989999999529937
  endloop
endfacet
facet normal -0.37139067635410444 -1.486281150558281e-17 0.9284766908852592
  outer loop
    vertex 403.2911452609658 -7.9089385591310055 1.9989999999529937
    vertex 408.2911452609657 -13.821407392025284 3.998999999952994
    vertex 408.2911452609657 -7.9089385591310055 3.998999999952994
  endloop
endfacet
endsolid filament_width_sensor_v2_full
