solid filament_width_sensor_v2_full
facet normal -1.0 0.0 -1.8999426183223743e-14
  outer loop
    vertex 414.895048291374 -25.142420459586642 0.9989999999543139
    vertex 414.89504829137417 -30.74242045958664 -0.001000000072389412
    vertex 414.895048291374 -30.74242045958664 0.9989999999543139
  endloop
endfacet
facet normal -1.0 0.0 -1.8999426183223743e-14
  outer loop
    vertex 414.89504829137417 -30.74242045958664 -0.001000000072389412
    vertex 414.895048291374 -25.142420459586642 0.9989999999543139
    vertex 414.89504829137417 -25.142420459586642 -0.001000000072389412
  endloop
endfacet
facet normal 0.0 1.0 0.0
  outer loop
    vertex 414.89504829137417 -30.74242045958664 -0.001000000072389412
    vertex 407.8019282463192 -30.74242045958664 0.9989999999541784
    vertex 414.895048291374 -30.74242045958664 0.9989999999543139
  endloop
endfacet
facet normal 0.0 1.0 0.0
  outer loop
    vertex 407.8019282463192 -30.74242045958664 0.9989999999541784
    vertex 414.89504829137417 -30.74242045958664 -0.001000000072389412
    vertex 407.80192824631945 -30.74242045958664 -0.0010000000725247703
  endloop
endfacet
facet normal 1.0 0.0 1.8999426183223743e-14
  outer loop
    vertex 407.80192824631945 -25.142420459586642 -0.0010000000725247703
    vertex 407.8019282463192 -30.74242045958664 0.9989999999541784
    vertex 407.80192824631945 -30.74242045958664 -0.0010000000725247703
  endloop
endfacet
facet normal 1.0 0.0 1.8999426183223743e-14
  outer loop
    vertex 407.8019282463192 -30.74242045958664 0.9989999999541784
    vertex 407.80192824631945 -25.142420459586642 -0.0010000000725247703
    vertex 407.8019282463192 -25.142420459586642 0.9989999999541784
  endloop
endfacet
facet normal 0.0 -1.0 0.0
  outer loop
    vertex 407.8019282463192 -25.142420459586642 0.9989999999541784
    vertex 414.89504829137417 -25.142420459586642 -0.001000000072389412
    vertex 414.895048291374 -25.142420459586642 0.9989999999543139
  endloop
endfacet
facet normal 0.0 -1.0 0.0
  outer loop
    vertex 414.89504829137417 -25.142420459586642 -0.001000000072389412
    vertex 407.8019282463192 -25.142420459586642 0.9989999999541784
    vertex 407.80192824631945 -25.142420459586642 -0.0010000000725247703
  endloop
endfacet
facet normal -2.4507416251819364e-12 -2.1320007883866983e-12 1.0
  outer loop
    vertex 419.2911452609514 -17.721407392038067 5.998999999927176
    vertex 418.5911452609514 -18.42293183018883 5.9989999999112715
    vertex 419.2911452609514 -33.90000000001276 5.998999999926761
  endloop
endfacet
facet normal -2.4507416251819364e-12 -2.1320007883866983e-12 1.0
  outer loop
    vertex 418.5911452609514 -18.42293183018883 5.9989999999112715
    vertex 419.2911452609514 -17.721407392038067 5.998999999927176
    vertex 409.3056528885868 -17.743129858120795 5.998999999720527
  endloop
endfacet
facet normal -2.4507416251819364e-12 -2.1320007883866983e-12 1.0
  outer loop
    vertex 418.5911452609514 -18.42293183018883 5.9989999999112715
    vertex 409.3056528885868 -17.743129858120795 5.998999999720527
    vertex 409.35229137763343 -18.443030056960204 5.999000008031641
  endloop
endfacet
facet normal -2.4507416251819364e-12 -2.1320007883866983e-12 1.0
  outer loop
    vertex 409.35229137763343 -18.443030056960204 5.999000008031641
    vertex 409.3056528885868 -17.743129858120795 5.998999999720527
    vertex 408.77101912946097 -18.51955600021034 5.998999975547474
  endloop
endfacet
facet normal -2.4507416251819364e-12 -2.1320007883866983e-12 1.0
  outer loop
    vertex 408.77101912946097 -18.51955600021034 5.998999975547474
    vertex 409.3056528885868 -17.743129858120795 5.998999999720527
    vertex 408.64934960266436 -17.82953382488728 5.999000000579866
  endloop
endfacet
facet normal -2.4507416251819364e-12 -2.1320007883866983e-12 1.0
  outer loop
    vertex 408.77101912946097 -18.51955600021034 5.998999975547474
    vertex 408.64934960266436 -17.82953382488728 5.999000000579866
    vertex 408.2268268545227 -18.64020052301568 5.999000002846765
  endloop
endfacet
facet normal -2.4507416251819364e-12 -2.1320007883866983e-12 1.0
  outer loop
    vertex 408.2268268545227 -18.64020052301568 5.999000002846765
    vertex 408.64934960266436 -17.82953382488728 5.999000000579866
    vertex 408.0454809218061 -17.963408288370832 5.998999999696604
  endloop
endfacet
facet normal -2.4507416251819364e-12 -2.1320007883866983e-12 1.0
  outer loop
    vertex 408.2268268545227 -18.64020052301568 5.999000002846765
    vertex 408.0454809218061 -17.963408288370832 5.998999999696604
    vertex 407.6952202584803 -18.807815438907934 5.99900004650473
  endloop
endfacet
facet normal -2.4507416251819364e-12 -2.1320007883866983e-12 1.0
  outer loop
    vertex 407.6952202584803 -18.807815438907934 5.99900004650473
    vertex 408.0454809218061 -17.963408288370832 5.998999999696604
    vertex 407.45557807189107 -18.14940394250527 5.998999999032065
  endloop
endfacet
facet normal -2.4507416251819364e-12 -2.1320007883866983e-12 1.0
  outer loop
    vertex 407.6952202584803 -18.807815438907934 5.99900004650473
    vertex 407.45557807189107 -18.14940394250527 5.998999999032065
    vertex 407.1802451885224 -19.021125097168532 5.998999924016606
  endloop
endfacet
facet normal -2.4507416251819364e-12 -2.1320007883866983e-12 1.0
  outer loop
    vertex 407.1802451885224 -19.021125097168532 5.998999924016606
    vertex 407.45557807189107 -18.14940394250527 5.998999999032065
    vertex 406.8841305698006 -18.386105248055397 5.999000001587587
  endloop
endfacet
facet normal -2.4507416251819364e-12 -2.1320007883866983e-12 1.0
  outer loop
    vertex 407.1802451885224 -19.021125097168532 5.998999924016606
    vertex 406.8841305698006 -18.386105248055397 5.999000001587587
    vertex 406.6858209158819 -19.27850608249821 5.999000044825013
  endloop
endfacet
facet normal -2.4507416251819364e-12 -2.1320007883866983e-12 1.0
  outer loop
    vertex 406.6858209158819 -19.27850608249821 5.999000044825013
    vertex 406.8841305698006 -18.386105248055397 5.999000001587587
    vertex 406.3354874760747 -18.671710765161826 5.998999998875729
  endloop
endfacet
facet normal -2.4507416251819364e-12 -2.1320007883866983e-12 1.0
  outer loop
    vertex 406.6858209158819 -19.27850608249821 5.999000044825013
    vertex 406.3354874760747 -18.671710765161826 5.998999998875729
    vertex 406.2157103078149 -19.577999570187718 5.999000030850112
  endloop
endfacet
facet normal -2.4507416251819364e-12 -2.1320007883866983e-12 1.0
  outer loop
    vertex 406.2157103078149 -19.577999570187718 5.999000030850112
    vertex 406.3354874760747 -18.671710765161826 5.998999998875729
    vertex 405.8138242959366 -19.004046863386048 5.998999999285942
  endloop
endfacet
facet normal -2.4507416251819364e-12 -2.1320007883866983e-12 1.0
  outer loop
    vertex 406.2157103078149 -19.577999570187718 5.999000030850112
    vertex 405.8138242959366 -19.004046863386048 5.998999999285942
    vertex 405.7734911899097 -19.917326233956643 5.998999911332106
  endloop
endfacet
facet normal -2.4507416251819364e-12 -2.1320007883866983e-12 1.0
  outer loop
    vertex 405.7734911899097 -19.917326233956643 5.998999911332106
    vertex 405.8138242959366 -19.004046863386048 5.998999999285942
    vertex 405.323111201176 -19.38058426435056 5.999000001838402
  endloop
endfacet
facet normal -2.4507416251819364e-12 -2.1320007883866983e-12 1.0
  outer loop
    vertex 405.7734911899097 -19.917326233956643 5.998999911332106
    vertex 405.323111201176 -19.38058426435056 5.999000001838402
    vertex 405.36252911667253 -20.293903593002664 5.999000079027335
  endloop
endfacet
facet normal -2.4507416251819364e-12 -2.1320007883866983e-12 1.0
  outer loop
    vertex 405.36252911667253 -20.293903593002664 5.999000079027335
    vertex 405.323111201176 -19.38058426435056 5.999000001838402
    vertex 404.98595175762665 -20.70486566623977 5.998999990111379
  endloop
endfacet
facet normal -2.4507416251819364e-12 -2.1320007883866983e-12 1.0
  outer loop
    vertex 404.98595175762665 -20.70486566623977 5.998999990111379
    vertex 405.323111201176 -19.38058426435056 5.999000001838402
    vertex 404.8670828147445 -19.79845729107457 5.998999998245888
  endloop
endfacet
facet normal -2.4507416251819364e-12 -2.1320007883866983e-12 1.0
  outer loop
    vertex 404.98595175762665 -20.70486566623977 5.998999990111379
    vertex 404.8670828147445 -19.79845729107457 5.998999998245888
    vertex 404.6466250938578 -21.147084784144933 5.9989999264908604
  endloop
endfacet
facet normal -2.4507416251819364e-12 -2.1320007883866983e-12 1.0
  outer loop
    vertex 404.6466250938578 -21.147084784144933 5.9989999264908604
    vertex 404.8670828147445 -19.79845729107457 5.998999998245888
    vertex 404.4492097880206 -20.254485677505976 5.999000000137359
  endloop
endfacet
facet normal -2.4507416251819364e-12 -2.1320007883866983e-12 1.0
  outer loop
    vertex 404.6466250938578 -21.147084784144933 5.9989999264908604
    vertex 404.4492097880206 -20.254485677505976 5.999000000137359
    vertex 404.3471316061682 -21.617195392211837 5.999000132984841
  endloop
endfacet
facet normal -2.4507416251819364e-12 -2.1320007883866983e-12 1.0
  outer loop
    vertex 404.3471316061682 -21.617195392211837 5.999000132984841
    vertex 404.4492097880206 -20.254485677505976 5.999000000137359
    vertex 404.07267238705623 -20.74519877226652 5.999000001348082
  endloop
endfacet
facet normal -2.4507416251819364e-12 -2.1320007883866983e-12 1.0
  outer loop
    vertex 404.3471316061682 -21.617195392211837 5.999000132984841
    vertex 404.07267238705623 -20.74519877226652 5.999000001348082
    vertex 404.0897506208386 -22.111619664852356 5.9989998378611595
  endloop
endfacet
facet normal -2.4507416251819364e-12 -2.1320007883866983e-12 1.0
  outer loop
    vertex 404.0897506208386 -22.111619664852356 5.9989998378611595
    vertex 404.07267238705623 -20.74519877226652 5.999000001348082
    vertex 403.876440962578 -22.6265947348102 5.99900016866985
  endloop
endfacet
facet normal -2.4507416251819364e-12 -2.1320007883866983e-12 1.0
  outer loop
    vertex 403.876440962578 -22.6265947348102 5.99900016866985
    vertex 404.07267238705623 -20.74519877226652 5.999000001348082
    vertex 403.74033628883177 -21.26686195240468 5.9989999974811
  endloop
endfacet
facet normal -2.4507416251819364e-12 -2.1320007883866983e-12 1.0
  outer loop
    vertex 403.876440962578 -22.6265947348102 5.99900016866985
    vertex 403.74033628883177 -21.26686195240468 5.9989999974811
    vertex 403.70882604668566 -23.15820133085264 5.9989998467605865
  endloop
endfacet
facet normal -2.4507416251819364e-12 -2.1320007883866983e-12 1.0
  outer loop
    vertex 403.70882604668566 -23.15820133085264 5.9989998467605865
    vertex 403.74033628883177 -21.26686195240468 5.9989999974811
    vertex 403.4547307717255 -21.815505046130525 5.999000002801949
  endloop
endfacet
facet normal -2.4507416251819364e-12 -2.1320007883866983e-12 1.0
  outer loop
    vertex 403.70882604668566 -23.15820133085264 5.9989998467605865
    vertex 403.4547307717255 -21.815505046130525 5.999000002801949
    vertex 403.5881815238803 -23.70239360579094 5.9990001034648435
  endloop
endfacet
facet normal -2.4507416251819364e-12 -2.1320007883866983e-12 1.0
  outer loop
    vertex 403.5881815238803 -23.70239360579094 5.9990001034648435
    vertex 403.4547307717255 -21.815505046130525 5.999000002801949
    vertex 403.51169361414605 -24.283376960727857 5.998999976375346
  endloop
endfacet
facet normal -2.4507416251819364e-12 -2.1320007883866983e-12 1.0
  outer loop
    vertex 403.51169361414605 -24.283376960727857 5.998999976375346
    vertex 403.4547307717255 -21.815505046130525 5.999000002801949
    vertex 403.4888779522142 -33.200000000012764 5.9989999999638846
  endloop
endfacet
facet normal -2.4507416251819364e-12 -2.1320007883866983e-12 1.0
  outer loop
    vertex 419.2911452609514 -33.90000000001276 5.998999999926761
    vertex 418.5911452609514 -33.200000000012764 5.998999999926728
    vertex 402.78708451580616 -33.90000000001276 5.998999999925607
  endloop
endfacet
facet normal -2.4507416251819364e-12 -2.1320007883866983e-12 1.0
  outer loop
    vertex 418.5911452609514 -33.200000000012764 5.998999999926728
    vertex 419.2911452609514 -33.90000000001276 5.998999999926761
    vertex 418.5911452609514 -18.42293183018883 5.9989999999112715
  endloop
endfacet
facet normal -2.4507416251819364e-12 -2.1320007883866983e-12 1.0
  outer loop
    vertex 402.78708451580616 -33.90000000001276 5.998999999925607
    vertex 418.5911452609514 -33.200000000012764 5.998999999926728
    vertex 403.4888779522142 -33.200000000012764 5.9989999999638846
  endloop
endfacet
facet normal -2.4507416251819364e-12 -2.1320007883866983e-12 1.0
  outer loop
    vertex 402.78708451580616 -33.90000000001276 5.998999999925607
    vertex 403.4888779522142 -33.200000000012764 5.9989999999638846
    vertex 403.4547307717255 -21.815505046130525 5.999000002801949
  endloop
endfacet
facet normal -2.4507416251819364e-12 -2.1320007883866983e-12 1.0
  outer loop
    vertex 402.78708451580616 -33.90000000001276 5.998999999925607
    vertex 403.4547307717255 -21.815505046130525 5.999000002801949
    vertex 403.2180294661754 -22.386952548220954 5.9989999969419845
  endloop
endfacet
facet normal -2.4507416251819364e-12 -2.1320007883866983e-12 1.0
  outer loop
    vertex 402.78708451580616 -33.90000000001276 5.998999999925607
    vertex 403.2180294661754 -22.386952548220954 5.9989999969419845
    vertex 403.03203381204094 -22.97685539813586 5.999000002722602
  endloop
endfacet
facet normal -2.4507416251819364e-12 -2.1320007883866983e-12 1.0
  outer loop
    vertex 402.78708451580616 -33.90000000001276 5.998999999925607
    vertex 403.03203381204094 -22.97685539813586 5.999000002722602
    vertex 402.8981593485573 -23.580724078994283 5.998999997928732
  endloop
endfacet
facet normal -2.4507416251819364e-12 -2.1320007883866983e-12 1.0
  outer loop
    vertex 402.78708451580616 -33.90000000001276 5.998999999925607
    vertex 402.8981593485573 -23.580724078994283 5.998999997928732
    vertex 402.8118110019456 -24.236604887896423 5.999000000404678
  endloop
endfacet
facet normal 2.45074047450753e-12 2.131970463632136e-12 -1.0
  outer loop
    vertex 419.29114526096583 -33.89999999999999 -0.0010000000474186088
    vertex 414.89504829137417 -30.74242045958664 -0.001000000072389412
    vertex 419.29114526096583 -17.721407392025284 -0.0010000000470068936
  endloop
endfacet
facet normal 2.45074047450753e-12 2.131970463632136e-12 -1.0
  outer loop
    vertex 414.89504829137417 -30.74242045958664 -0.001000000072389412
    vertex 419.29114526096583 -33.89999999999999 -0.0010000000474186088
    vertex 402.78708451582065 -33.89999999999999 -0.0010000000485705651
  endloop
endfacet
facet normal 2.45074047450753e-12 2.131970463632136e-12 -1.0
  outer loop
    vertex 414.89504829137417 -30.74242045958664 -0.001000000072389412
    vertex 402.78708451582065 -33.89999999999999 -0.0010000000485705651
    vertex 407.80192824631945 -30.74242045958664 -0.0010000000725247703
  endloop
endfacet
facet normal 2.45074047450753e-12 2.131970463632136e-12 -1.0
  outer loop
    vertex 407.80192824631945 -30.74242045958664 -0.0010000000725247703
    vertex 402.78708451582065 -33.89999999999999 -0.0010000000485705651
    vertex 407.80192824631945 -25.142420459586642 -0.0010000000725247703
  endloop
endfacet
facet normal 2.45074047450753e-12 2.131970463632136e-12 -1.0
  outer loop
    vertex 407.80192824631945 -25.142420459586642 -0.0010000000725247703
    vertex 402.78708451582065 -33.89999999999999 -0.0010000000485705651
    vertex 407.4555780719055 -18.149403942492484 -0.0010000009421143095
  endloop
endfacet
facet normal 2.45074047450753e-12 2.131970463632136e-12 -1.0
  outer loop
    vertex 407.4555780719055 -18.149403942492484 -0.0010000009421143095
    vertex 402.78708451582065 -33.89999999999999 -0.0010000000485705651
    vertex 406.88413056981506 -18.38610524804261 -0.0009999983865965289
  endloop
endfacet
facet normal 2.45074047450753e-12 2.131970463632136e-12 -1.0
  outer loop
    vertex 406.88413056981506 -18.38610524804261 -0.0009999983865965289
    vertex 402.78708451582065 -33.89999999999999 -0.0010000000485705651
    vertex 406.3354874760891 -18.671710765149044 -0.0010000010984518414
  endloop
endfacet
facet normal 2.45074047450753e-12 2.131970463632136e-12 -1.0
  outer loop
    vertex 406.3354874760891 -18.671710765149044 -0.0010000010984518414
    vertex 402.78708451582065 -33.89999999999999 -0.0010000000485705651
    vertex 405.813824295951 -19.00404686337326 -0.0010000006882355471
  endloop
endfacet
facet normal 2.45074047450753e-12 2.131970463632136e-12 -1.0
  outer loop
    vertex 405.813824295951 -19.00404686337326 -0.0010000006882355471
    vertex 402.78708451582065 -33.89999999999999 -0.0010000000485705651
    vertex 405.3231112011904 -19.380584264337774 -0.00099999813578448
  endloop
endfacet
facet normal 2.45074047450753e-12 2.131970463632136e-12 -1.0
  outer loop
    vertex 405.3231112011904 -19.380584264337774 -0.00099999813578448
    vertex 402.78708451582065 -33.89999999999999 -0.0010000000485705651
    vertex 404.86708281475893 -19.798457291061784 -0.0010000017282948803
  endloop
endfacet
facet normal 2.45074047450753e-12 2.131970463632136e-12 -1.0
  outer loop
    vertex 404.86708281475893 -19.798457291061784 -0.0010000017282948803
    vertex 402.78708451582065 -33.89999999999999 -0.0010000000485705651
    vertex 404.4492097880351 -20.25448567749319 -0.0009999998368235119
  endloop
endfacet
facet normal 2.45074047450753e-12 2.131970463632136e-12 -1.0
  outer loop
    vertex 404.4492097880351 -20.25448567749319 -0.0009999998368235119
    vertex 402.78708451582065 -33.89999999999999 -0.0010000000485705651
    vertex 404.0726723870706 -20.745198772253726 -0.0009999986261005121
  endloop
endfacet
facet normal 2.45074047450753e-12 2.131970463632136e-12 -1.0
  outer loop
    vertex 404.0726723870706 -20.745198772253726 -0.0009999986261005121
    vertex 402.78708451582065 -33.89999999999999 -0.0010000000485705651
    vertex 403.74033628884627 -21.266861952391885 -0.0010000024930817751
  endloop
endfacet
facet normal 2.45074047450753e-12 2.131970463632136e-12 -1.0
  outer loop
    vertex 403.74033628884627 -21.266861952391885 -0.0010000024930817751
    vertex 402.78708451582065 -33.89999999999999 -0.0010000000485705651
    vertex 403.4547307717399 -21.81550504611773 -0.0009999971722315425
  endloop
endfacet
facet normal 2.45074047450753e-12 2.131970463632136e-12 -1.0
  outer loop
    vertex 403.4547307717399 -21.81550504611773 -0.0009999971722315425
    vertex 402.78708451582065 -33.89999999999999 -0.0010000000485705651
    vertex 403.21802946618976 -22.38695254820816 -0.0010000030322015574
  endloop
endfacet
facet normal 2.45074047450753e-12 2.131970463632136e-12 -1.0
  outer loop
    vertex 403.21802946618976 -22.38695254820816 -0.0010000030322015574
    vertex 402.78708451582065 -33.89999999999999 -0.0010000000485705651
    vertex 403.0320338120553 -22.97685539812307 -0.0009999972515783494
  endloop
endfacet
facet normal 2.45074047450753e-12 2.131970463632136e-12 -1.0
  outer loop
    vertex 403.0320338120553 -22.97685539812307 -0.0009999972515783494
    vertex 402.78708451582065 -33.89999999999999 -0.0010000000485705651
    vertex 402.8981593485717 -23.58072407898149 -0.0010000020454487557
  endloop
endfacet
facet normal 2.45074047450753e-12 2.131970463632136e-12 -1.0
  outer loop
    vertex 402.8981593485717 -23.58072407898149 -0.0010000020454487557
    vertex 402.78708451582065 -33.89999999999999 -0.0010000000485705651
    vertex 402.81181100196 -24.236604887883626 -0.0009999995695047891
  endloop
endfacet
facet normal 2.45074047450753e-12 2.131970463632136e-12 -1.0
  outer loop
    vertex 419.29114526096583 -17.721407392025284 -0.0010000000470068936
    vertex 414.89504829137417 -25.142420459586642 -0.001000000072389412
    vertex 409.3056528886012 -17.74312985810801 -0.0010000002536575624
  endloop
endfacet
facet normal 2.45074047450753e-12 2.131970463632136e-12 -1.0
  outer loop
    vertex 414.89504829137417 -25.142420459586642 -0.001000000072389412
    vertex 419.29114526096583 -17.721407392025284 -0.0010000000470068936
    vertex 414.89504829137417 -30.74242045958664 -0.001000000072389412
  endloop
endfacet
facet normal 2.45074047450753e-12 2.131970463632136e-12 -1.0
  outer loop
    vertex 409.3056528886012 -17.74312985810801 -0.0010000002536575624
    vertex 414.89504829137417 -25.142420459586642 -0.001000000072389412
    vertex 407.80192824631945 -25.142420459586642 -0.0010000000725247703
  endloop
endfacet
facet normal 2.45074047450753e-12 2.131970463632136e-12 -1.0
  outer loop
    vertex 409.3056528886012 -17.74312985810801 -0.0010000002536575624
    vertex 407.80192824631945 -25.142420459586642 -0.0010000000725247703
    vertex 408.6493496026787 -17.829533824874495 -0.0009999993943171914
  endloop
endfacet
facet normal 2.45074047450753e-12 2.131970463632136e-12 -1.0
  outer loop
    vertex 408.6493496026787 -17.829533824874495 -0.0009999993943171914
    vertex 407.80192824631945 -25.142420459586642 -0.0010000000725247703
    vertex 408.0454809218204 -17.963408288358046 -0.0010000002775779281
  endloop
endfacet
facet normal 2.45074047450753e-12 2.131970463632136e-12 -1.0
  outer loop
    vertex 408.0454809218204 -17.963408288358046 -0.0010000002775779281
    vertex 407.80192824631945 -25.142420459586642 -0.0010000000725247703
    vertex 407.4555780719055 -18.149403942492484 -0.0010000009421143095
  endloop
endfacet
facet normal -0.5372996083468257 0.8433914458128847 4.813287120235974e-13
  outer loop
    vertex 406.3354874760747 -18.671710765161826 5.998999998875729
    vertex 405.813824295951 -19.00404686337326 -0.0010000006882355471
    vertex 405.8138242959366 -19.004046863386048 5.998999999285942
  endloop
endfacet
facet normal -0.5372996083468257 0.8433914458128847 4.813287120235974e-13
  outer loop
    vertex 405.813824295951 -19.00404686337326 -0.0010000006882355471
    vertex 406.3354874760747 -18.671710765161826 5.998999998875729
    vertex 406.3354874760891 -18.671710765149044 -0.0010000010984518414
  endloop
endfacet
facet normal -0.6087614290086962 0.7933533402912541 1.9951297309299621e-13
  outer loop
    vertex 405.8138242959366 -19.004046863386048 5.998999999285942
    vertex 405.3231112011904 -19.380584264337774 -0.00099999813578448
    vertex 405.323111201176 -19.38058426435056 5.999000001838402
  endloop
endfacet
facet normal -0.6087614290086962 0.7933533402912541 1.9951297309299621e-13
  outer loop
    vertex 405.3231112011904 -19.380584264337774 -0.00099999813578448
    vertex 405.8138242959366 -19.004046863386048 5.998999999285942
    vertex 405.813824295951 -19.00404686337326 -0.0010000006882355471
  endloop
endfacet
facet normal -0.6755902076156463 0.7372773368101371 -8.382118002899658e-14
  outer loop
    vertex 405.3231112011904 -19.380584264337774 -0.00099999813578448
    vertex 404.8670828147445 -19.79845729107457 5.998999998245888
    vertex 405.323111201176 -19.38058426435056 5.999000001838402
  endloop
endfacet
facet normal -0.6755902076156463 0.7372773368101371 -8.382118002899658e-14
  outer loop
    vertex 404.8670828147445 -19.79845729107457 5.998999998245888
    vertex 405.3231112011904 -19.380584264337774 -0.00099999813578448
    vertex 404.86708281475893 -19.798457291061784 -0.0010000017282948803
  endloop
endfacet
facet normal -0.737277336810187 0.6755902076155916 -3.6651740336192666e-13
  outer loop
    vertex 404.8670828147445 -19.79845729107457 5.998999998245888
    vertex 404.4492097880351 -20.25448567749319 -0.0009999998368235119
    vertex 404.4492097880206 -20.254485677505976 5.999000000137359
  endloop
endfacet
facet normal -0.737277336810187 0.6755902076155916 -3.6651740336192666e-13
  outer loop
    vertex 404.4492097880351 -20.25448567749319 -0.0009999998368235119
    vertex 404.8670828147445 -19.79845729107457 5.998999998245888
    vertex 404.86708281475893 -19.798457291061784 -0.0010000017282948803
  endloop
endfacet
facet normal -0.7933533402912695 0.6087614290086762 -6.464242079438234e-13
  outer loop
    vertex 404.4492097880206 -20.254485677505976 5.999000000137359
    vertex 404.0726723870706 -20.745198772253726 -0.0009999986261005121
    vertex 404.07267238705623 -20.74519877226652 5.999000001348082
  endloop
endfacet
facet normal -0.7933533402912695 0.6087614290086762 -6.464242079438234e-13
  outer loop
    vertex 404.0726723870706 -20.745198772253726 -0.0009999986261005121
    vertex 404.4492097880206 -20.254485677505976 5.999000000137359
    vertex 404.4492097880351 -20.25448567749319 -0.0009999998368235119
  endloop
endfacet
facet normal -0.8433914458128381 0.5372996083468986 -9.214113339804771e-13
  outer loop
    vertex 404.07267238705623 -20.74519877226652 5.999000001348082
    vertex 403.74033628884627 -21.266861952391885 -0.0010000024930817751
    vertex 403.74033628883177 -21.26686195240468 5.9989999974811
  endloop
endfacet
facet normal -0.8433914458128381 0.5372996083468986 -9.214113339804771e-13
  outer loop
    vertex 403.74033628884627 -21.266861952391885 -0.0010000024930817751
    vertex 404.07267238705623 -20.74519877226652 5.999000001348082
    vertex 404.0726723870706 -20.745198772253726 -0.0009999986261005121
  endloop
endfacet
facet normal -0.8870108331782984 0.46174861323488664 -1.1893859634041691e-12
  outer loop
    vertex 403.74033628883177 -21.26686195240468 5.9989999974811
    vertex 403.4547307717399 -21.81550504611773 -0.0009999971722315425
    vertex 403.4547307717255 -21.815505046130525 5.999000002801949
  endloop
endfacet
facet normal -0.8870108331782984 0.46174861323488664 -1.1893859634041691e-12
  outer loop
    vertex 403.4547307717399 -21.81550504611773 -0.0009999971722315425
    vertex 403.74033628883177 -21.26686195240468 5.9989999974811
    vertex 403.74033628884627 -21.266861952391885 -0.0010000024930817751
  endloop
endfacet
facet normal -0.9238795325112517 0.382683432365175 -1.44830864747466e-12
  outer loop
    vertex 403.4547307717255 -21.815505046130525 5.999000002801949
    vertex 403.21802946618976 -22.38695254820816 -0.0010000030322015574
    vertex 403.2180294661754 -22.386952548220954 5.9989999969419845
  endloop
endfacet
facet normal -0.9238795325112517 0.382683432365175 -1.44830864747466e-12
  outer loop
    vertex 403.21802946618976 -22.38695254820816 -0.0010000030322015574
    vertex 403.4547307717255 -21.815505046130525 5.999000002801949
    vertex 403.4547307717399 -21.81550504611773 -0.0009999971722315425
  endloop
endfacet
facet normal -0.9537169507482297 0.3007057995042645 -1.696208828223474e-12
  outer loop
    vertex 403.2180294661754 -22.386952548220954 5.9989999969419845
    vertex 403.0320338120553 -22.97685539812307 -0.0009999972515783494
    vertex 403.03203381204094 -22.97685539813586 5.999000002722602
  endloop
endfacet
facet normal -0.9537169507482297 0.3007057995042645 -1.696208828223474e-12
  outer loop
    vertex 403.0320338120553 -22.97685539812307 -0.0009999972515783494
    vertex 403.2180294661754 -22.386952548220954 5.9989999969419845
    vertex 403.21802946618976 -22.38695254820816 -0.0010000030322015574
  endloop
endfacet
facet normal -0.9762960071199022 0.21643961393824399 -1.931199835593801e-12
  outer loop
    vertex 403.03203381204094 -22.97685539813586 5.999000002722602
    vertex 402.8981593485717 -23.58072407898149 -0.0010000020454487557
    vertex 402.8981593485573 -23.580724078994283 5.998999997928732
  endloop
endfacet
facet normal -0.9762960071199022 0.21643961393824399 -1.931199835593801e-12
  outer loop
    vertex 402.8981593485717 -23.58072407898149 -0.0010000020454487557
    vertex 403.03203381204094 -22.97685539813586 5.999000002722602
    vertex 403.0320338120553 -22.97685539812307 -0.0009999972515783494
  endloop
endfacet
facet normal -0.9914448613737992 0.13052619222013784 -2.1514932461224657e-12
  outer loop
    vertex 402.8981593485573 -23.580724078994283 5.998999997928732
    vertex 402.81181100196 -24.236604887883626 -0.0009999995695047891
    vertex 402.8118110019456 -24.236604887896423 5.999000000404678
  endloop
endfacet
facet normal -0.9914448613737992 0.13052619222013784 -2.1514932461224657e-12
  outer loop
    vertex 402.81181100196 -24.236604887883626 -0.0009999995695047891
    vertex 402.8981593485573 -23.580724078994283 5.998999997928732
    vertex 402.8981593485717 -23.58072407898149 -0.0010000020454487557
  endloop
endfacet
facet normal -0.9999967263427694 0.002558769967134624 -2.4452783027074442e-12
  outer loop
    vertex 402.8118110019456 -24.236604887896423 5.999000000404678
    vertex 402.78708451582065 -33.89999999999999 -0.0010000000485705651
    vertex 402.78708451580616 -33.90000000001276 5.998999999925607
  endloop
endfacet
facet normal -0.9999967263427694 0.002558769967134624 -2.4452783027074442e-12
  outer loop
    vertex 402.78708451582065 -33.89999999999999 -0.0010000000485705651
    vertex 402.8118110019456 -24.236604887896423 5.999000000404678
    vertex 402.81181100196 -24.236604887883626 -0.0009999995695047891
  endloop
endfacet
facet normal 1.49182812595728e-25 -1.0 -2.1320007883867e-12
  outer loop
    vertex 402.78708451580616 -33.90000000001276 5.998999999925607
    vertex 419.29114526096583 -33.89999999999999 -0.0010000000474186088
    vertex 419.2911452609514 -33.90000000001276 5.998999999926761
  endloop
endfacet
facet normal 1.49182812595728e-25 -1.0 -2.1320007883867e-12
  outer loop
    vertex 419.29114526096583 -33.89999999999999 -0.0010000000474186088
    vertex 402.78708451580616 -33.90000000001276 5.998999999925607
    vertex 402.78708451582065 -33.89999999999999 -0.0010000000485705651
  endloop
endfacet
facet normal 1.0 -3.8250084347078105e-22 2.450741625185245e-12
  outer loop
    vertex 419.29114526096583 -33.89999999999999 -0.0010000000474186088
    vertex 419.2911452609514 -17.721407392038067 5.998999999927176
    vertex 419.2911452609514 -33.90000000001276 5.998999999926761
  endloop
endfacet
facet normal 1.0 -3.8250084347078105e-22 2.450741625185245e-12
  outer loop
    vertex 419.2911452609514 -17.721407392038067 5.998999999927176
    vertex 419.29114526096583 -33.89999999999999 -0.0010000000474186088
    vertex 419.29114526096583 -17.721407392025284 -0.0010000000470068936
  endloop
endfacet
facet normal -0.002175397453968397 0.9999976338201593 2.1266644065976546e-12
  outer loop
    vertex 419.29114526096583 -17.721407392025284 -0.0010000000470068936
    vertex 409.3056528885868 -17.743129858120795 5.998999999720527
    vertex 419.2911452609514 -17.721407392038067 5.998999999927176
  endloop
endfacet
facet normal -0.002175397453968397 0.9999976338201593 2.1266644065976546e-12
  outer loop
    vertex 409.3056528885868 -17.743129858120795 5.998999999720527
    vertex 419.29114526096583 -17.721407392025284 -0.0010000000470068936
    vertex 409.3056528886012 -17.74312985810801 -0.0010000002536575624
  endloop
endfacet
facet normal -0.1305261922200304 0.9914448613738134 1.7938752536410977e-12
  outer loop
    vertex 409.3056528885868 -17.743129858120795 5.998999999720527
    vertex 408.6493496026787 -17.829533824874495 -0.0009999993943171914
    vertex 408.64934960266436 -17.82953382488728 5.999000000579866
  endloop
endfacet
facet normal -0.1305261922200304 0.9914448613738134 1.7938752536410977e-12
  outer loop
    vertex 408.6493496026787 -17.829533824874495 -0.0009999993943171914
    vertex 409.3056528885868 -17.743129858120795 5.998999999720527
    vertex 409.3056528886012 -17.74312985810801 -0.0010000002536575624
  endloop
endfacet
facet normal -0.21643961393813535 0.9762960071199261 1.5510262856623641e-12
  outer loop
    vertex 408.6493496026787 -17.829533824874495 -0.0009999993943171914
    vertex 408.0454809218061 -17.963408288370832 5.998999999696604
    vertex 408.64934960266436 -17.82953382488728 5.999000000579866
  endloop
endfacet
facet normal -0.21643961393813535 0.9762960071199261 1.5510262856623641e-12
  outer loop
    vertex 408.0454809218061 -17.963408288370832 5.998999999696604
    vertex 408.6493496026787 -17.829533824874495 -0.0009999993943171914
    vertex 408.0454809218204 -17.963408288358046 -0.0010000002775779281
  endloop
endfacet
facet normal -0.3007057995042713 0.9537169507482277 1.2963730711147612e-12
  outer loop
    vertex 408.0454809218204 -17.963408288358046 -0.0010000002775779281
    vertex 407.45557807189107 -18.14940394250527 5.998999999032065
    vertex 408.0454809218061 -17.963408288370832 5.998999999696604
  endloop
endfacet
facet normal -0.3007057995042713 0.9537169507482277 1.2963730711147612e-12
  outer loop
    vertex 407.45557807189107 -18.14940394250527 5.998999999032065
    vertex 408.0454809218204 -17.963408288358046 -0.0010000002775779281
    vertex 407.4555780719055 -18.149403942492484 -0.0010000009421143095
  endloop
endfacet
facet normal -0.3826834323651259 0.9238795325112718 1.031853674723816e-12
  outer loop
    vertex 407.45557807189107 -18.14940394250527 5.998999999032065
    vertex 406.88413056981506 -18.38610524804261 -0.0009999983865965289
    vertex 406.8841305698006 -18.386105248055397 5.999000001587587
  endloop
endfacet
facet normal -0.3826834323651259 0.9238795325112718 1.031853674723816e-12
  outer loop
    vertex 406.88413056981506 -18.38610524804261 -0.0009999983865965289
    vertex 407.45557807189107 -18.14940394250527 5.998999999032065
    vertex 407.4555780719055 -18.149403942492484 -0.0010000009421143095
  endloop
endfacet
facet normal -0.4617486132349882 0.8870108331782457 7.594812488181205e-13
  outer loop
    vertex 406.88413056981506 -18.38610524804261 -0.0009999983865965289
    vertex 406.3354874760747 -18.671710765161826 5.998999998875729
    vertex 406.8841305698006 -18.386105248055397 5.999000001587587
  endloop
endfacet
facet normal -0.4617486132349882 0.8870108331782457 7.594812488181205e-13
  outer loop
    vertex 406.3354874760747 -18.671710765161826 5.998999998875729
    vertex 406.88413056981506 -18.38610524804261 -0.0009999983865965289
    vertex 406.3354874760891 -18.671710765149044 -0.0010000010984518414
  endloop
endfacet
facet normal 1.2568322993243694e-10 1.0699590141169072e-10 1.0
  outer loop
    vertex 418.59114526032266 -18.42293183072381 0.9989999996253045
    vertex 414.895048291374 -25.142420459586642 0.9989999999543139
    vertex 418.59114526032266 -33.200000000547746 0.9989999996407636
  endloop
endfacet
facet normal 1.2568322993243694e-10 1.0699590141169072e-10 1.0
  outer loop
    vertex 414.895048291374 -25.142420459586642 0.9989999999543139
    vertex 418.59114526032266 -18.42293183072381 0.9989999996253045
    vertex 409.35229137700475 -18.443030057495186 0.9990000077456737
  endloop
endfacet
facet normal 1.2568322993243694e-10 1.0699590141169072e-10 1.0
  outer loop
    vertex 414.895048291374 -25.142420459586642 0.9989999999543139
    vertex 409.35229137700475 -18.443030057495186 0.9990000077456737
    vertex 407.8019282463192 -25.142420459586642 0.9989999999541784
  endloop
endfacet
facet normal 1.2568322993243694e-10 1.0699590141169072e-10 1.0
  outer loop
    vertex 407.8019282463192 -25.142420459586642 0.9989999999541784
    vertex 409.35229137700475 -18.443030057495186 0.9990000077456737
    vertex 408.7710191288323 -18.51955600074532 0.9989999752615051
  endloop
endfacet
facet normal 1.2568322993243694e-10 1.0699590141169072e-10 1.0
  outer loop
    vertex 407.8019282463192 -25.142420459586642 0.9989999999541784
    vertex 408.7710191288323 -18.51955600074532 0.9989999752615051
    vertex 408.2268268538941 -18.64020052355066 0.999000002560799
  endloop
endfacet
facet normal 1.2568322993243694e-10 1.0699590141169072e-10 1.0
  outer loop
    vertex 407.8019282463192 -25.142420459586642 0.9989999999541784
    vertex 408.2268268538941 -18.64020052355066 0.999000002560799
    vertex 407.6952202578516 -18.807815439442916 0.9990000462187615
  endloop
endfacet
facet normal 1.2568322993243694e-10 1.0699590141169072e-10 1.0
  outer loop
    vertex 407.8019282463192 -25.142420459586642 0.9989999999541784
    vertex 407.6952202578516 -18.807815439442916 0.9990000462187615
    vertex 407.8019282463192 -30.74242045958664 0.9989999999541784
  endloop
endfacet
facet normal 1.2568322993243694e-10 1.0699590141169072e-10 1.0
  outer loop
    vertex 418.59114526032266 -33.200000000547746 0.9989999996407636
    vertex 414.895048291374 -30.74242045958664 0.9989999999543139
    vertex 403.4888779515855 -33.200000000547746 0.9989999996779144
  endloop
endfacet
facet normal 1.2568322993243694e-10 1.0699590141169072e-10 1.0
  outer loop
    vertex 414.895048291374 -30.74242045958664 0.9989999999543139
    vertex 418.59114526032266 -33.200000000547746 0.9989999996407636
    vertex 414.895048291374 -25.142420459586642 0.9989999999543139
  endloop
endfacet
facet normal 1.2568322993243694e-10 1.0699590141169072e-10 1.0
  outer loop
    vertex 403.4888779515855 -33.200000000547746 0.9989999996779144
    vertex 414.895048291374 -30.74242045958664 0.9989999999543139
    vertex 407.8019282463192 -30.74242045958664 0.9989999999541784
  endloop
endfacet
facet normal 1.2568322993243694e-10 1.0699590141169072e-10 1.0
  outer loop
    vertex 403.4888779515855 -33.200000000547746 0.9989999996779144
    vertex 407.8019282463192 -30.74242045958664 0.9989999999541784
    vertex 407.6952202578516 -18.807815439442916 0.9990000462187615
  endloop
endfacet
facet normal 1.2568322993243694e-10 1.0699590141169072e-10 1.0
  outer loop
    vertex 403.4888779515855 -33.200000000547746 0.9989999996779144
    vertex 407.6952202578516 -18.807815439442916 0.9990000462187615
    vertex 407.1802451878938 -19.021125097703514 0.9989999237306416
  endloop
endfacet
facet normal 1.2568322993243694e-10 1.0699590141169072e-10 1.0
  outer loop
    vertex 403.4888779515855 -33.200000000547746 0.9989999996779144
    vertex 407.1802451878938 -19.021125097703514 0.9989999237306416
    vertex 406.6858209152533 -19.278506083033193 0.9990000445390446
  endloop
endfacet
facet normal 1.2568322993243694e-10 1.0699590141169072e-10 1.0
  outer loop
    vertex 403.4888779515855 -33.200000000547746 0.9989999996779144
    vertex 406.6858209152533 -19.278506083033193 0.9990000445390446
    vertex 406.2157103071861 -19.5779995707227 0.9990000305641455
  endloop
endfacet
facet normal 1.2568322993243694e-10 1.0699590141169072e-10 1.0
  outer loop
    vertex 403.4888779515855 -33.200000000547746 0.9989999996779144
    vertex 406.2157103071861 -19.5779995707227 0.9990000305641455
    vertex 405.773491189281 -19.91732623449162 0.9989999110461406
  endloop
endfacet
facet normal 1.2568322993243694e-10 1.0699590141169072e-10 1.0
  outer loop
    vertex 403.4888779515855 -33.200000000547746 0.9989999996779144
    vertex 405.773491189281 -19.91732623449162 0.9989999110461406
    vertex 405.36252911604385 -20.293903593537646 0.9990000787413673
  endloop
endfacet
facet normal 1.2568322993243694e-10 1.0699590141169072e-10 1.0
  outer loop
    vertex 403.4888779515855 -33.200000000547746 0.9989999996779144
    vertex 405.36252911604385 -20.293903593537646 0.9990000787413673
    vertex 404.98595175699796 -20.704865666774747 0.9989999898254095
  endloop
endfacet
facet normal 1.2568322993243694e-10 1.0699590141169072e-10 1.0
  outer loop
    vertex 403.4888779515855 -33.200000000547746 0.9989999996779144
    vertex 404.98595175699796 -20.704865666774747 0.9989999898254095
    vertex 404.6466250932291 -21.14708478467991 0.9989999262048933
  endloop
endfacet
facet normal 1.2568322993243694e-10 1.0699590141169072e-10 1.0
  outer loop
    vertex 403.4888779515855 -33.200000000547746 0.9989999996779144
    vertex 404.6466250932291 -21.14708478467991 0.9989999262048933
    vertex 404.3471316055394 -21.617195392746815 0.9990001326988742
  endloop
endfacet
facet normal 1.2568322993243694e-10 1.0699590141169072e-10 1.0
  outer loop
    vertex 403.4888779515855 -33.200000000547746 0.9989999996779144
    vertex 404.3471316055394 -21.617195392746815 0.9990001326988742
    vertex 404.0897506202099 -22.111619665387337 0.9989998375751917
  endloop
endfacet
facet normal 1.2568322993243694e-10 1.0699590141169072e-10 1.0
  outer loop
    vertex 403.4888779515855 -33.200000000547746 0.9989999996779144
    vertex 404.0897506202099 -22.111619665387337 0.9989998375751917
    vertex 403.8764409619493 -22.62659473534518 0.9990001683838831
  endloop
endfacet
facet normal 1.2568322993243694e-10 1.0699590141169072e-10 1.0
  outer loop
    vertex 403.4888779515855 -33.200000000547746 0.9989999996779144
    vertex 403.8764409619493 -22.62659473534518 0.9990001683838831
    vertex 403.70882604605697 -23.15820133138762 0.9989998464746217
  endloop
endfacet
facet normal 1.2568322993243694e-10 1.0699590141169072e-10 1.0
  outer loop
    vertex 403.4888779515855 -33.200000000547746 0.9989999996779144
    vertex 403.70882604605697 -23.15820133138762 0.9989998464746217
    vertex 403.5881815232515 -23.702393606325924 0.9990001031788747
  endloop
endfacet
facet normal 1.2568322993243694e-10 1.0699590141169072e-10 1.0
  outer loop
    vertex 403.4888779515855 -33.200000000547746 0.9989999996779144
    vertex 403.5881815232515 -23.702393606325924 0.9990001031788747
    vertex 403.51169361351737 -24.28337696126284 0.9989999760893802
  endloop
endfacet
facet normal 0.9762960071198972 -0.21643961393826636 -9.954591132674723e-11
  outer loop
    vertex 403.70882604605697 -23.15820133138762 0.9989998464746217
    vertex 403.5881815238803 -23.70239360579094 5.9990001034648435
    vertex 403.5881815232515 -23.702393606325924 0.9990001031788747
  endloop
endfacet
facet normal 0.9762960071198972 -0.21643961393826636 -9.954591132674723e-11
  outer loop
    vertex 403.5881815238803 -23.70239360579094 5.9990001034648435
    vertex 403.70882604605697 -23.15820133138762 0.9989998464746217
    vertex 403.70882604668566 -23.15820133085264 5.9989998467605865
  endloop
endfacet
facet normal 0.9914448613738022 -0.13052619222011505 -1.1064225139242734e-10
  outer loop
    vertex 403.5881815232515 -23.702393606325924 0.9990001031788747
    vertex 403.51169361414605 -24.283376960727857 5.998999976375346
    vertex 403.51169361351737 -24.28337696126284 0.9989999760893802
  endloop
endfacet
facet normal 0.9914448613738022 -0.13052619222011505 -1.1064225139242734e-10
  outer loop
    vertex 403.51169361414605 -24.283376960727857 5.998999976375346
    vertex 403.5881815232515 -23.702393606325924 0.9990001031788747
    vertex 403.5881815238803 -23.70239360579094 5.9990001034648435
  endloop
endfacet
facet normal 0.9999967263427693 -0.0025587699671344114 -1.254090654598613e-10
  outer loop
    vertex 403.51169361351737 -24.28337696126284 0.9989999760893802
    vertex 403.4888779522142 -33.200000000012764 5.9989999999638846
    vertex 403.4888779515855 -33.200000000547746 0.9989999996779144
  endloop
endfacet
facet normal 0.9999967263427693 -0.0025587699671344114 -1.254090654598613e-10
  outer loop
    vertex 403.4888779522142 -33.200000000012764 5.9989999999638846
    vertex 403.51169361351737 -24.28337696126284 0.9989999760893802
    vertex 403.51169361414605 -24.283376960727857 5.998999976375346
  endloop
endfacet
facet normal -2.632338412508888e-22 1.0 -1.0699588694338797e-10
  outer loop
    vertex 418.5911452609514 -33.200000000012764 5.998999999926728
    vertex 403.4888779515855 -33.200000000547746 0.9989999996779144
    vertex 403.4888779522142 -33.200000000012764 5.9989999999638846
  endloop
endfacet
facet normal -2.632338412508888e-22 1.0 -1.0699588694338797e-10
  outer loop
    vertex 403.4888779515855 -33.200000000547746 0.9989999996779144
    vertex 418.5911452609514 -33.200000000012764 5.998999999926728
    vertex 418.59114526032266 -33.200000000547746 0.9989999996407636
  endloop
endfacet
facet normal -1.0 -1.5455349326247775e-20 1.2568325476587462e-10
  outer loop
    vertex 418.5911452609514 -33.200000000012764 5.998999999926728
    vertex 418.59114526032266 -18.42293183072381 0.9989999996253045
    vertex 418.59114526032266 -33.200000000547746 0.9989999996407636
  endloop
endfacet
facet normal -1.0 -1.5455349326247775e-20 1.2568325476587462e-10
  outer loop
    vertex 418.59114526032266 -18.42293183072381 0.9989999996253045
    vertex 418.5911452609514 -33.200000000012764 5.998999999926728
    vertex 418.5911452609514 -18.42293183018883 5.9989999999112715
  endloop
endfacet
facet normal 0.0021753974539683073 -0.9999976338201592 1.0672222273945313e-10
  outer loop
    vertex 409.35229137700475 -18.443030057495186 0.9990000077456737
    vertex 418.5911452609514 -18.42293183018883 5.9989999999112715
    vertex 409.35229137763343 -18.443030056960204 5.999000008031641
  endloop
endfacet
facet normal 0.0021753974539683073 -0.9999976338201592 1.0672222273945313e-10
  outer loop
    vertex 418.5911452609514 -18.42293183018883 5.9989999999112715
    vertex 409.35229137700475 -18.443030057495186 0.9990000077456737
    vertex 418.59114526032266 -18.42293183072381 0.9989999996253045
  endloop
endfacet
facet normal 0.13052619222003434 -0.9914448613738128 8.967556562774536e-11
  outer loop
    vertex 408.77101912946097 -18.51955600021034 5.998999975547474
    vertex 409.35229137700475 -18.443030057495186 0.9990000077456737
    vertex 409.35229137763343 -18.443030056960204 5.999000008031641
  endloop
endfacet
facet normal 0.13052619222003434 -0.9914448613738128 8.967556562774536e-11
  outer loop
    vertex 409.35229137700475 -18.443030057495186 0.9990000077456737
    vertex 408.77101912946097 -18.51955600021034 5.998999975547474
    vertex 408.7710191288323 -18.51955600074532 0.9989999752615051
  endloop
endfacet
facet normal 0.2164396139381301 -0.9762960071199274 7.725682206107098e-11
  outer loop
    vertex 408.2268268538941 -18.64020052355066 0.999000002560799
    vertex 408.77101912946097 -18.51955600021034 5.998999975547474
    vertex 408.2268268545227 -18.64020052301568 5.999000002846765
  endloop
endfacet
facet normal 0.2164396139381301 -0.9762960071199274 7.725682206107098e-11
  outer loop
    vertex 408.77101912946097 -18.51955600021034 5.998999975547474
    vertex 408.2268268538941 -18.64020052355066 0.999000002560799
    vertex 408.7710191288323 -18.51955600074532 0.9989999752615051
  endloop
endfacet
facet normal 0.30070579950426285 -0.9537169507482302 6.425010742958023e-11
  outer loop
    vertex 407.6952202578516 -18.807815439442916 0.9990000462187615
    vertex 408.2268268545227 -18.64020052301568 5.999000002846765
    vertex 407.6952202584803 -18.807815438907934 5.99900004650473
  endloop
endfacet
facet normal 0.30070579950426285 -0.9537169507482302 6.425010742958023e-11
  outer loop
    vertex 408.2268268545227 -18.64020052301568 5.999000002846765
    vertex 407.6952202578516 -18.807815439442916 0.9990000462187615
    vertex 408.2268268538941 -18.64020052355066 0.999000002560799
  endloop
endfacet
facet normal 0.382683432365116 -0.923879532511276 5.075441068526141e-11
  outer loop
    vertex 407.1802451885224 -19.021125097168532 5.998999924016606
    vertex 407.6952202578516 -18.807815439442916 0.9990000462187615
    vertex 407.6952202584803 -18.807815438907934 5.99900004650473
  endloop
endfacet
facet normal 0.382683432365116 -0.923879532511276 5.075441068526141e-11
  outer loop
    vertex 407.6952202578516 -18.807815439442916 0.9990000462187615
    vertex 407.1802451885224 -19.021125097168532 5.998999924016606
    vertex 407.1802451878938 -19.021125097703514 0.9989999237306416
  endloop
endfacet
facet normal 0.4617486132350612 -0.8870108331782076 3.687244222928349e-11
  outer loop
    vertex 406.6858209152533 -19.278506083033193 0.9990000445390446
    vertex 407.1802451885224 -19.021125097168532 5.998999924016606
    vertex 406.6858209158819 -19.27850608249821 5.999000044825013
  endloop
endfacet
facet normal 0.4617486132350612 -0.8870108331782076 3.687244222928349e-11
  outer loop
    vertex 407.1802451885224 -19.021125097168532 5.998999924016606
    vertex 406.6858209152533 -19.278506083033193 0.9990000445390446
    vertex 407.1802451878938 -19.021125097703514 0.9989999237306416
  endloop
endfacet
facet normal 0.5372996083467321 -0.8433914458129443 2.2709852223773772e-11
  outer loop
    vertex 406.2157103078149 -19.577999570187718 5.999000030850112
    vertex 406.6858209152533 -19.278506083033193 0.9990000445390446
    vertex 406.6858209158819 -19.27850608249821 5.999000044825013
  endloop
endfacet
facet normal 0.5372996083467321 -0.8433914458129443 2.2709852223773772e-11
  outer loop
    vertex 406.6858209152533 -19.278506083033193 0.9990000445390446
    vertex 406.2157103078149 -19.577999570187718 5.999000030850112
    vertex 406.2157103071861 -19.5779995707227 0.9990000305641455
  endloop
endfacet
facet normal 0.6087614290087453 -0.7933533402912164 8.37442653021263e-12
  outer loop
    vertex 405.7734911899097 -19.917326233956643 5.998999911332106
    vertex 406.2157103071861 -19.5779995707227 0.9990000305641455
    vertex 406.2157103078149 -19.577999570187718 5.999000030850112
  endloop
endfacet
facet normal 0.6087614290087453 -0.7933533402912164 8.37442653021263e-12
  outer loop
    vertex 406.2157103071861 -19.5779995707227 0.9990000305641455
    vertex 405.7734911899097 -19.917326233956643 5.998999911332106
    vertex 405.773491189281 -19.91732623449162 0.9989999110461406
  endloop
endfacet
facet normal 0.6755902076156548 -0.7372773368101292 -6.024733605828798e-12
  outer loop
    vertex 405.36252911604385 -20.293903593537646 0.9990000787413673
    vertex 405.7734911899097 -19.917326233956643 5.998999911332106
    vertex 405.36252911667253 -20.293903593002664 5.999000079027335
  endloop
endfacet
facet normal 0.6755902076156548 -0.7372773368101292 -6.024733605828798e-12
  outer loop
    vertex 405.7734911899097 -19.917326233956643 5.998999911332106
    vertex 405.36252911604385 -20.293903593537646 0.9990000787413673
    vertex 405.773491189281 -19.91732623449162 0.9989999110461406
  endloop
endfacet
facet normal 0.7372773368101996 -0.675590207615578 -2.0378041881323007e-11
  outer loop
    vertex 405.36252911604385 -20.293903593537646 0.9990000787413673
    vertex 404.98595175762665 -20.70486566623977 5.998999990111379
    vertex 404.98595175699796 -20.704865666774747 0.9989999898254095
  endloop
endfacet
facet normal 0.7372773368101996 -0.675590207615578 -2.0378041881323007e-11
  outer loop
    vertex 404.98595175762665 -20.70486566623977 5.998999990111379
    vertex 405.36252911604385 -20.293903593537646 0.9990000787413673
    vertex 405.36252911667253 -20.293903593002664 5.999000079027335
  endloop
endfacet
facet normal 0.7933533402912134 -0.6087614290087492 -3.4576260953461525e-11
  outer loop
    vertex 404.98595175699796 -20.704865666774747 0.9989999898254095
    vertex 404.6466250938578 -21.147084784144933 5.9989999264908604
    vertex 404.6466250932291 -21.14708478467991 0.9989999262048933
  endloop
endfacet
facet normal 0.7933533402912134 -0.6087614290087492 -3.4576260953461525e-11
  outer loop
    vertex 404.6466250938578 -21.147084784144933 5.9989999264908604
    vertex 404.98595175699796 -20.704865666774747 0.9989999898254095
    vertex 404.98595175762665 -20.70486566623977 5.998999990111379
  endloop
endfacet
facet normal 0.8433914458128469 -0.5372996083468848 -4.8511333802044445e-11
  outer loop
    vertex 404.6466250932291 -21.14708478467991 0.9989999262048933
    vertex 404.3471316061682 -21.617195392211837 5.999000132984841
    vertex 404.3471316055394 -21.617195392746815 0.9990001326988742
  endloop
endfacet
facet normal 0.8433914458128469 -0.5372996083468848 -4.8511333802044445e-11
  outer loop
    vertex 404.3471316061682 -21.617195392211837 5.999000132984841
    vertex 404.6466250932291 -21.14708478467991 0.9989999262048933
    vertex 404.6466250938578 -21.147084784144933 5.9989999264908604
  endloop
endfacet
facet normal 0.8870108331783236 -0.46174861323483823 -6.207720610849905e-11
  outer loop
    vertex 404.3471316055394 -21.617195392746815 0.9990001326988742
    vertex 404.0897506208386 -22.111619664852356 5.9989998378611595
    vertex 404.0897506202099 -22.111619665387337 0.9989998375751917
  endloop
endfacet
facet normal 0.8870108331783236 -0.46174861323483823 -6.207720610849905e-11
  outer loop
    vertex 404.0897506208386 -22.111619664852356 5.9989998378611595
    vertex 404.3471316055394 -21.617195392746815 0.9990001326988742
    vertex 404.3471316061682 -21.617195392211837 5.999000132984841
  endloop
endfacet
facet normal 0.9238795325112388 -0.3826834323652058 -7.517063339313185e-11
  outer loop
    vertex 404.0897506202099 -22.111619665387337 0.9989998375751917
    vertex 403.876440962578 -22.6265947348102 5.99900016866985
    vertex 403.8764409619493 -22.62659473534518 0.9990001683838831
  endloop
endfacet
facet normal 0.9238795325112388 -0.3826834323652058 -7.517063339313185e-11
  outer loop
    vertex 403.876440962578 -22.6265947348102 5.99900016866985
    vertex 404.0897506202099 -22.111619665387337 0.9989998375751917
    vertex 404.0897506208386 -22.111619664852356 5.9989998378611595
  endloop
endfacet
facet normal 0.9537169507482174 -0.30070579950430326 -8.769196676843932e-11
  outer loop
    vertex 403.8764409619493 -22.62659473534518 0.9990001683838831
    vertex 403.70882604668566 -23.15820133085264 5.9989998467605865
    vertex 403.70882604605697 -23.15820133138762 0.9989998464746217
  endloop
endfacet
facet normal 0.9537169507482174 -0.30070579950430326 -8.769196676843932e-11
  outer loop
    vertex 403.70882604668566 -23.15820133085264 5.9989998467605865
    vertex 403.8764409619493 -22.62659473534518 0.9990001683838831
    vertex 403.876440962578 -22.6265947348102 5.99900016866985
  endloop
endfacet
endsolid filament_width_sensor_v2_full
